<svg xmlns="http://www.w3.org/2000/svg" width="1em" height="1em" viewBox="0 0 28 28"><g fill="none"><path fill="url(#fluentColorApps280)" d="M2 6.25A2.25 2.25 0 0 1 4.25 4h7a2.25 2.25 0 0 1 2.25 2.25V14a1 1 0 0 1-1 1H3a1 1 0 0 1-1-1z"/><path fill="url(#fluentColorApps281)" d="M21.75 14.5A2.25 2.25 0 0 1 24 16.75v7A2.25 2.25 0 0 1 21.75 26H13.5a1 1 0 0 1-1-1v-9.5a1 1 0 0 1 1-1z"/><path fill="url(#fluentColorApps282)" d="M13.5 25a1 1 0 0 1-1 1H3.75A1.75 1.75 0 0 1 2 24.25V15.5a1 1 0 0 1 1-1h9.5a1 1 0 0 1 1 1z"/><path fill="url(#fluentColorApps283)" d="M17.66 2.658a2.25 2.25 0 0 1 3.182 0l4.5 4.5a2.25 2.25 0 0 1 0 3.183l-4.499 4.501a2.25 2.25 0 0 1-3.181 0l-4.5-4.5a2.25 2.25 0 0 1-.001-3.182z"/><defs><linearGradient id="fluentColorApps280" x1="2" x2="12.989" y1="4" y2="15.489" gradientUnits="userSpaceOnUse"><stop stop-color="#b9c0c7"/><stop offset="1" stop-color="#889096"/></linearGradient><linearGradient id="fluentColorApps281" x1="24" x2="13.321" y1="25.179" y2="14.5" gradientUnits="userSpaceOnUse"><stop stop-color="#63686e"/><stop offset="1" stop-color="#889096"/></linearGradient><linearGradient id="fluentColorApps282" x1="2" x2="13.5" y1="14.5" y2="21.893" gradientUnits="userSpaceOnUse"><stop stop-color="#55595e"/><stop offset="1" stop-color="#383b3d"/></linearGradient><linearGradient id="fluentColorApps283" x1="23.507" x2="16.125" y1="12.333" y2="3.234" gradientUnits="userSpaceOnUse"><stop stop-color="#2764e7"/><stop offset="1" stop-color="#36dff1"/></linearGradient></defs></g></svg>