<svg t="1722261194139" class="icon" viewBox="0 0 1024 1024" version="1.1" xmlns="http://www.w3.org/2000/svg" p-id="46328" width="200" height="200"><path d="M1002.4 918.4H21.6c-0.8 0-1.6-0.8-1.6-1.6V239.2c0-0.8 0.8-1.6 1.6-1.6h980.8c0.8 0 1.6 0.8 1.6 1.6v677.6c0 0.8-0.8 1.6-1.6 1.6z" fill="#83C6EF" p-id="46329"></path><path d="M323.2 652.8h-16.8v-11.2c0-16 8.8-30.4 21.6-40.8 26.4-20.8 44-56.8 44-97.6 0-64.8-44-117.6-97.6-117.6s-97.6 52.8-97.6 117.6c0 40.8 17.6 76.8 44 97.6 12.8 10.4 21.6 24.8 21.6 40.8v11.2h-16.8c-77.6 0-140.8 58.4-140.8 129.6v24.8h378.4v-24.8c0.8-71.2-62.4-129.6-140-129.6z" fill="#FFFFFF" p-id="46330"></path><path d="M530.4 236.8h474.4v680.8H530.4V236.8z" fill="#429BCF" p-id="46331"></path><path d="M822.4 473.6H636.8c-12 0-21.6-9.6-21.6-21.6s9.6-21.6 21.6-21.6h185.6c12 0 21.6 9.6 21.6 21.6s-9.6 21.6-21.6 21.6z" fill="#FFD96B" p-id="46332"></path><path d="M892.8 560.8h-256c-12 0-21.6-9.6-21.6-21.6s9.6-21.6 21.6-21.6h256c12 0 21.6 9.6 21.6 21.6s-9.6 21.6-21.6 21.6z" fill="#FFB103" p-id="46333"></path><path d="M866.4 648H636.8c-12 0-21.6-9.6-21.6-21.6s9.6-21.6 21.6-21.6h229.6c12 0 21.6 9.6 21.6 21.6 0 12-9.6 21.6-21.6 21.6zM892.8 735.2h-256c-12 0-21.6-9.6-21.6-21.6s9.6-21.6 21.6-21.6h256c12 0 21.6 9.6 21.6 21.6s-9.6 21.6-21.6 21.6z" fill="#FFFFFF" p-id="46334"></path><path d="M484 152.8H576V264H484V152.8z" fill="#1A7FC0" p-id="46335"></path><path d="M610.4 277.6c-2.4-27.2-26.4-48.8-55.2-48.8h-48.8c-29.6 0-53.6 21.6-55.2 48.8h159.2z" fill="#DA3329" p-id="46336"></path><path d="M604.8 191.2H455.2c-25.6 0-46.4-20.8-46.4-46.4 0-25.6 20.8-46.4 46.4-46.4h149.6c25.6 0 46.4 20.8 46.4 46.4 0 25.6-20.8 46.4-46.4 46.4z" fill="#1A7FC0" p-id="46337"></path><path d="M604.8 98.4h-75.2v92.8h75.2c25.6 0 46.4-20.8 46.4-46.4s-20.8-46.4-46.4-46.4z" fill="#2D416C" p-id="46338"></path><path d="M530.4 152.8H576V264h-46.4V152.8z" fill="#2D416C" p-id="46339"></path><path d="M530.4 277.6h80c-2.4-27.2-26.4-48.8-55.2-48.8h-24.8v48.8z" fill="#C11B16" p-id="46340"></path></svg>