<svg xmlns="http://www.w3.org/2000/svg" width="1em" height="1em" viewBox="0 0 48 48"><g fill="none"><path stroke="currentColor" stroke-linecap="round" stroke-linejoin="round" stroke-width="4" d="M25 40H7a3 3 0 0 1-3-3V11a3 3 0 0 1 3-3h34a3 3 0 0 1 3 3v13.941"/><path stroke="currentColor" stroke-width="4" d="M4 11a3 3 0 0 1 3-3h34a3 3 0 0 1 3 3v9H4z"/><path stroke="currentColor" stroke-linecap="round" stroke-linejoin="round" stroke-width="4" d="M32 35h12m-6-6v12"/><circle r="2" fill="currentColor" transform="matrix(0 -1 -1 0 10 14)"/><circle r="2" fill="currentColor" transform="matrix(0 -1 -1 0 16 14)"/></g></svg>