<svg xmlns="http://www.w3.org/2000/svg" width="1em" height="1em" viewBox="0 0 24 24"><path fill="none" stroke="currentColor" stroke-linecap="round" stroke-linejoin="round" stroke-width="1.5" d="m14 12.648l2.37-2.37c.294-.293.44-.44.518-.598c.15-.3.15-.653 0-.954c-.078-.158-.224-.304-.517-.597s-.44-.439-.597-.517a1.07 1.07 0 0 0-.954 0c-.158.078-.305.224-.598.517l-2.37 2.371M14 12.648l-8.222 8.223c-.293.293-.44.439-.598.517c-.3.15-.653.15-.954 0c-.158-.078-.304-.224-.597-.517s-.439-.44-.517-.597a1.07 1.07 0 0 1 0-.954c.078-.158.224-.305.517-.598l8.223-8.222M14 12.648L11.852 10.5m7.648-8l-.11.299c-.146.391-.218.587-.36.73c-.144.143-.34.216-.731.36L18 4l.299.11c.391.145.587.218.73.36c.143.144.215.34.36.731l.111.299l.11-.299c.146-.391.218-.587.36-.73c.144-.143.34-.216.731-.36L21 4l-.299-.11c-.391-.145-.587-.218-.73-.36c-.143-.144-.215-.34-.36-.731zm0 10l-.11.299c-.146.391-.218.587-.36.73c-.144.143-.34.216-.731.36L18 14l.299.11c.391.146.587.218.73.36c.143.144.215.34.36.731l.111.299l.11-.299c.146-.391.218-.587.36-.73c.144-.143.34-.216.731-.36L21 14l-.299-.11c-.391-.146-.587-.218-.73-.36c-.143-.144-.215-.34-.36-.731zm-9-10l-.11.299c-.146.391-.218.587-.36.73c-.144.143-.34.216-.731.36L9 4l.299.11c.391.145.587.218.73.36c.143.144.216.34.36.731l.111.299l.11-.299c.146-.391.218-.587.36-.73c.144-.143.34-.216.731-.36L12 4l-.299-.11c-.391-.145-.587-.218-.73-.36c-.143-.144-.216-.34-.36-.731z" color="currentColor"/></svg>