<svg xmlns="http://www.w3.org/2000/svg" width="1em" height="1em" viewBox="0 0 14 14"><g fill="none" stroke="currentColor" stroke-linecap="round" stroke-linejoin="round" stroke-width="1"><path d="M4.525 7.997V7.11a1.5 1.5 0 0 1 1.5-1.5h1.95a1.5 1.5 0 0 1 1.5 1.5v.888a1.5 1.5 0 0 1-1.5 1.5h-1.95a1.5 1.5 0 0 1-1.5-1.5ZM7 4.503v1.106m-.948 1.779v.33m1.895-.33v.33M.872 9.045H2.61m8.78 0h1.738m-3.993-6.42V.864m0 12.272v-1.745M.872 4.946H2.61m2.261-2.321V.864m6.519 4.082h1.738m-8.257 8.19v-1.745"/><path d="M2.758 10.315c.053.48.434.86.914.915c1.068.121 2.183.27 3.328.27s2.26-.149 3.328-.27c.48-.054.861-.435.914-.915C11.36 9.25 11.5 8.14 11.5 7s-.14-2.25-.258-3.315a1.04 1.04 0 0 0-.914-.915C9.26 2.649 8.145 2.5 7 2.5s-2.26.149-3.328.27c-.48.054-.861.435-.914.915C2.64 4.75 2.5 5.86 2.5 7s.14 2.25.258 3.315"/></g></svg>