<svg xmlns="http://www.w3.org/2000/svg" width="1em" height="1em" viewBox="0 0 24 24"><path fill="none" stroke="currentColor" stroke-linecap="round" stroke-linejoin="round" stroke-width="1.5" d="M2 4c0 .943 0 1.414.293 1.707S3.057 6 4 6s1.414 0 1.707-.293S6 4.943 6 4s0-1.414-.293-1.707S4.943 2 4 2s-1.414 0-1.707.293S2 3.057 2 4m0 8c0 .943 0 1.414.293 1.707S3.057 14 4 14s1.414 0 1.707-.293S6 12.943 6 12s0-1.414-.293-1.707S4.943 10 4 10s-1.414 0-1.707.293S2 11.057 2 12m0 8c0 .943 0 1.414.293 1.707S3.057 22 4 22s1.414 0 1.707-.293S6 20.943 6 20s0-1.414-.293-1.707S4.943 18 4 18s-1.414 0-1.707.293S2 19.057 2 20m8-16c0 .943 0 1.414.293 1.707S11.057 6 12 6s1.414 0 1.707-.293S14 4.943 14 4s0-1.414-.293-1.707S12.943 2 12 2s-1.414 0-1.707.293S10 3.057 10 4m0 8c0 .943 0 1.414.293 1.707S11.057 14 12 14s1.414 0 1.707-.293S14 12.943 14 12s0-1.414-.293-1.707S12.943 10 12 10s-1.414 0-1.707.293S10 11.057 10 12m0 8c0 .943 0 1.414.293 1.707S11.057 22 12 22s1.414 0 1.707-.293S14 20.943 14 20s0-1.414-.293-1.707S12.943 18 12 18s-1.414 0-1.707.293S10 19.057 10 20m8-16c0 .943 0 1.414.293 1.707S19.057 6 20 6s1.414 0 1.707-.293S22 4.943 22 4s0-1.414-.293-1.707S20.943 2 20 2s-1.414 0-1.707.293S18 3.057 18 4m0 8c0 .943 0 1.414.293 1.707S19.057 14 20 14s1.414 0 1.707-.293S22 12.943 22 12s0-1.414-.293-1.707S20.943 10 20 10s-1.414 0-1.707.293S18 11.057 18 12m0 8c0 .943 0 1.414.293 1.707S19.057 22 20 22s1.414 0 1.707-.293S22 20.943 22 20s0-1.414-.293-1.707S20.943 18 20 18s-1.414 0-1.707.293S18 19.057 18 20" color="currentColor"/></svg>