<svg xmlns="http://www.w3.org/2000/svg" width="1em" height="1em" viewBox="0 0 16 16"><g fill="none"><path fill="url(#SVGwXJBabUa)" d="M2 8a6 6 0 1 1 12 0A6 6 0 0 1 2 8"/><path fill="url(#SVGIMgJheBo)" d="M8 10.5A.75.75 0 1 0 8 12a.75.75 0 0 0 0-1.5m0-6a2 2 0 0 0-2 2a.5.5 0 0 0 1 0a1 1 0 0 1 2 0c0 .37-.083.58-.366.898l-.116.125l-.264.27C7.712 8.36 7.5 8.768 7.5 9.5a.5.5 0 0 0 1 0c0-.37.083-.58.366-.898l.116-.125l.264-.27C9.788 7.64 10 7.232 10 6.5a2 2 0 0 0-2-2"/><defs><linearGradient id="SVGwXJBabUa" x1="2" x2="14" y1="2" y2="14" gradientUnits="userSpaceOnUse"><stop stop-color="#0fafff"/><stop offset="1" stop-color="#2764e7"/></linearGradient><linearGradient id="SVGIMgJheBo" x1="6.35" x2="8.557" y1="4.632" y2="12.221" gradientUnits="userSpaceOnUse"><stop stop-color="#fdfdfd"/><stop offset="1" stop-color="#cceaff"/></linearGradient></defs></g></svg>