<svg xmlns="http://www.w3.org/2000/svg" width="1em" height="1em" viewBox="0 0 48 48"><path fill="currentColor" fill-rule="evenodd" d="M36.749 1.125a2 2 0 0 1 2 2v1.572c4.224.524 7.5 4.01 7.5 8.428c0 1.11-.067 2.393-.144 3.505c-.164 2.385-1.928 4.408-4.394 4.7a43 43 0 0 1-4.962.295c-1.919 0-3.629-.137-4.963-.295c-2.466-.292-4.23-2.315-4.394-4.7a54 54 0 0 1-.143-3.505c0-4.417 3.275-7.904 7.5-8.428V3.125a2 2 0 0 1 2-2m-1.5 11a2 2 0 1 0-4 0v1a2 2 0 1 0 4 0zm5-2a2 2 0 0 1 2 2v1a2 2 0 1 1-4 0v-1a2 2 0 0 1 2-2M13.409 5.92c3.18.254 6.566 1.572 9.878 3.577a2 2 0 0 1 0 3.422c-2.655 1.607-5.398 3.797-8.046 6.445c-2.306 2.305-4.263 4.683-5.792 7.011c1.529 2.329 3.486 4.706 5.792 7.011s4.682 4.263 7.01 5.791c2.33-1.528 4.707-3.486 7.012-5.79c2.648-2.649 4.837-5.393 6.445-8.048a2 2 0 0 1 3.422 0c2.004 3.312 3.323 6.7 3.577 9.878c.258 3.233-.593 6.294-2.956 8.657s-5.425 3.214-8.657 2.956c-2.848-.227-5.864-1.31-8.842-2.974c-2.98 1.665-5.995 2.747-8.843 2.974c-3.232.258-6.293-.592-8.656-2.956s-3.215-5.424-2.957-8.657c.228-2.848 1.31-5.863 2.975-8.842c-1.665-2.979-2.747-5.994-2.975-8.842c-.258-3.233.593-6.293 2.957-8.657s5.424-3.214 8.656-2.956M7.28 22.487c1.475-2.02 3.204-4.022 5.133-5.952c1.93-1.93 3.932-3.657 5.951-5.132c-1.908-.868-3.688-1.37-5.272-1.496c-2.297-.183-4.127.415-5.51 1.797c-1.383 1.383-1.98 3.213-1.797 5.51c.126 1.585.628 3.365 1.495 5.273m0 7.776c-.867 1.908-1.369 3.688-1.495 5.273c-.184 2.297.414 4.127 1.797 5.51c1.383 1.382 3.213 1.98 5.51 1.797c1.584-.126 3.364-.628 5.272-1.496c-2.02-1.474-4.021-3.203-5.951-5.132c-1.93-1.93-3.658-3.932-5.133-5.952m18.86 11.084c1.909.868 3.689 1.37 5.273 1.496c2.298.183 4.127-.415 5.51-1.797c1.383-1.383 1.981-3.213 1.798-5.51c-.127-1.585-.628-3.365-1.496-5.273c-1.475 2.02-3.203 4.022-5.133 5.952s-3.932 3.658-5.951 5.132M22.25 20.375a6 6 0 1 0 0 12a6 6 0 0 0 0-12" clip-rule="evenodd"/></svg>