<svg xmlns="http://www.w3.org/2000/svg" width="1em" height="1em" viewBox="0 0 32 32"><path fill="currentColor" d="M28.955 16.76h1.52v7.62h-1.52Zm-1.53-15.24h1.53v6.1h-1.53Z"/><path fill="currentColor" d="M27.425 16.76h1.53v-1.52h-1.53v-1.53h-1.52v15.24h1.52V25.9h1.53v-1.52h-1.53zm-1.52-9.14h1.52v1.52h-1.52Zm0-7.62h1.52v1.52h-1.52Zm-1.53 28.95h1.53v1.53h-1.53Zm0-16.76h1.53v1.52h-1.53Zm-1.52 4.57h1.52v3.05h-1.52Zm0-13.71h1.52v3.04h-1.52ZM7.615 30.48h16.76V32H7.615Zm12.19-15.24h3.05v1.52h-3.05Zm1.53-9.15h1.52v1.53h-1.52Zm0-4.57h1.52v1.53h-1.52Zm-1.53 18.29h3.05v1.52h-3.05Zm-9.14 4.57v1.52h1.52v1.53h1.53v1.52h4.57v-1.52h1.52V25.9h1.53v-1.52zm7.62-7.62h1.52v3.05h-1.52Zm-4.57 6.1h4.57v-1.53h-1.53v-1.52h-1.52v1.52h-1.52zm-1.53-6.1h1.53v3.05h-1.53Zm-3.04 3.05h3.04v1.52h-3.04Zm0-4.57h3.04v1.52h-3.04Z"/><path fill="currentColor" d="M24.375 12.19v-1.52h-7.62V7.62h1.53V6.09h1.52V1.52h-1.52V0h-4.57v1.52h-1.53v4.57h1.53v1.53h1.52v3.05h-7.62v1.52z"/><path fill="currentColor" d="M9.145 6.09h1.52v1.53h-1.52Zm0-4.57h1.52v1.53h-1.52Zm-1.53 15.24h1.53v3.05h-1.53Zm0-13.71h1.53v3.04h-1.53Zm-1.52 25.9h1.52v1.53h-1.52Zm0-16.76h1.52v1.52h-1.52Zm0 1.52h-1.53v1.53h-1.52v1.52h1.52v7.62h-1.52v1.52h1.52v3.05h1.53zm-1.53-6.09h1.53v1.52h-1.53Zm0-7.62h1.53v1.52h-1.53Zm-1.52 1.52h1.52v6.1h-1.52Z"/><path fill="currentColor" d="M1.525 16.76h1.52v7.62h-1.52Z"/></svg>