<svg xmlns="http://www.w3.org/2000/svg" width="1em" height="1em" viewBox="0 0 24 24"><g fill="none"><path d="M24 0v24H0V0zM12.593 23.258l-.011.002l-.071.035l-.02.004l-.014-.004l-.071-.035q-.016-.005-.024.005l-.004.01l-.017.428l.005.02l.01.013l.104.074l.015.004l.012-.004l.104-.074l.012-.016l.004-.017l-.017-.427q-.004-.016-.017-.018m.265-.113l-.013.002l-.185.093l-.01.01l-.003.011l.018.43l.005.012l.008.007l.201.093q.019.005.029-.008l.004-.014l-.034-.614q-.005-.019-.02-.022m-.715.002a.02.02 0 0 0-.027.006l-.006.014l-.034.614q.001.018.017.024l.015-.002l.201-.093l.01-.008l.004-.011l.017-.43l-.003-.012l-.01-.01z"/><path fill="currentColor" d="m12.702 2.195l7 2.625A2 2 0 0 1 21 6.693v5.363a9 9 0 0 1-4.975 8.05l-3.354 1.677a1.5 1.5 0 0 1-1.342 0l-3.354-1.677A9 9 0 0 1 3 12.056V6.693A2 2 0 0 1 4.298 4.82l7-2.625a2 2 0 0 1 1.404 0M12 4.068L5 6.693v5.363a7 7 0 0 0 3.87 6.26L12 19.883l3.13-1.565A7 7 0 0 0 19 12.056V6.693zM12 14a1 1 0 1 1 0 2a1 1 0 0 1 0-2m0-7a1 1 0 0 1 1 1v4a1 1 0 1 1-2 0V8a1 1 0 0 1 1-1"/></g></svg>