<svg xmlns="http://www.w3.org/2000/svg" width="1em" height="1em" viewBox="0 0 16 16"><path fill="currentColor" d="M.5 6c-.275 0-.5.225-.5.5v3c0 .275.225.5.5.5s.5-.225.5-.5v-3C1 6.225.775 6 .5 6m14 0c-.275 0-.5.225-.5.5v3c0 .275.225.5.5.5s.5-.225.5-.5v-3c0-.275-.225-.5-.5-.5m-12-3c-.275 0-.5.225-.5.5v9c0 .275.225.5.5.5s.5-.225.5-.5v-9c0-.275-.225-.5-.5-.5m2 2c-.275 0-.5.225-.5.5v5c0 .275.225.5.5.5s.5-.225.5-.5v-5c0-.275-.225-.5-.5-.5m2 2c-.275 0-.5.225-.5.5v1c0 .275.225.5.5.5s.5-.225.5-.5v-1c0-.275-.225-.5-.5-.5m2-2c-.275 0-.5.225-.5.5v5c0 .275.225.5.5.5s.5-.225.5-.5v-5c0-.275-.225-.5-.5-.5m2-4c-.275 0-.5.225-.5.5v13c0 .275.225.5.5.5s.5-.225.5-.5v-13c0-.275-.225-.5-.5-.5m2 2c-.275 0-.5.225-.5.5v9c0 .275.225.5.5.5s.5-.225.5-.5v-9c0-.275-.225-.5-.5-.5"/></svg>