<svg xmlns="http://www.w3.org/2000/svg" width="1em" height="1em" viewBox="0 0 32 32"><g fill="none"><path fill="url(#fluentColorClipboardTextEdit320)" d="M8.5 4A3.5 3.5 0 0 0 5 7.5v19A3.5 3.5 0 0 0 8.5 30h8.974c.146-.328.353-.634.621-.903l8.505-8.505a3 3 0 0 1 .4-.336V7.5A3.5 3.5 0 0 0 23.5 4z"/><path fill="url(#fluentColorClipboardTextEdit321)" fill-opacity="0.9" d="M10 13a1 1 0 0 1 1-1h10a1 1 0 1 1 0 2H11a1 1 0 0 1-1-1"/><path fill="url(#fluentColorClipboardTextEdit322)" fill-opacity="0.9" d="M10 18a1 1 0 0 1 1-1h5a1 1 0 1 1 0 2h-5a1 1 0 0 1-1-1"/><path fill="url(#fluentColorClipboardTextEdit323)" fill-opacity="0.9" d="M11 22a1 1 0 1 0 0 2h10a1 1 0 1 0 0-2z"/><path fill="url(#fluentColorClipboardTextEdit329)" fill-opacity="0.4" d="M8.5 4A3.5 3.5 0 0 0 5 7.5v19A3.5 3.5 0 0 0 8.5 30h8.974c.146-.328.353-.634.621-.903l8.505-8.505a3 3 0 0 1 .4-.336V7.5A3.5 3.5 0 0 0 23.5 4z"/><path fill="url(#fluentColorClipboardTextEdit32a)" fill-opacity="0.4" d="M8.5 4A3.5 3.5 0 0 0 5 7.5v19A3.5 3.5 0 0 0 8.5 30h8.974c.146-.328.353-.634.621-.903l8.505-8.505a3 3 0 0 1 .4-.336V7.5A3.5 3.5 0 0 0 23.5 4z"/><path fill="url(#fluentColorClipboardTextEdit32b)" fill-opacity="0.4" d="M8.5 4A3.5 3.5 0 0 0 5 7.5v19A3.5 3.5 0 0 0 8.5 30h8.974c.146-.328.353-.634.621-.903l8.505-8.505a3 3 0 0 1 .4-.336V7.5A3.5 3.5 0 0 0 23.5 4z"/><path fill="url(#fluentColorClipboardTextEdit324)" d="M10 5a3 3 0 0 1 3-3h6a3 3 0 1 1 0 6h-6a3 3 0 0 1-3-3"/><path fill="url(#fluentColorClipboardTextEdit325)" d="m20.539 29.469l7.61-7.543l-4.073-4.074l-7.567 7.64l.308 3.695z"/><path fill="url(#fluentColorClipboardTextEdit326)" d="m26.937 23.14l2.211-2.214a2.88 2.88 0 0 0 .072-4.017a2.88 2.88 0 0 0-4.144-.057l-2.238 2.241z"/><path fill="url(#fluentColorClipboardTextEdit327)" d="M24.094 17.838a5.43 5.43 0 0 0 4.106 4.038l-1.55 1.551a5.43 5.43 0 0 1-4.106-4.04z"/><path fill="url(#fluentColorClipboardTextEdit328)" d="m20.539 29.47l.223-.223s-1.726-.661-2.535-1.47c-.809-.81-1.47-2.534-1.47-2.534l-.248.249a2.66 2.66 0 0 0-.686 1.206l-.79 3.051a1 1 0 0 0 1.217 1.22l3.02-.778a2.8 2.8 0 0 0 1.269-.722"/><defs><linearGradient id="fluentColorClipboardTextEdit320" x1="5" x2="25.632" y1="6.6" y2="31.15" gradientUnits="userSpaceOnUse"><stop stop-color="#36dff1"/><stop offset="1" stop-color="#0094f0"/></linearGradient><linearGradient id="fluentColorClipboardTextEdit321" x1="17.5" x2="8.622" y1="24" y2="13.125" gradientUnits="userSpaceOnUse"><stop stop-color="#9deaff"/><stop offset="1" stop-color="#fff"/></linearGradient><linearGradient id="fluentColorClipboardTextEdit322" x1="17.5" x2="8.622" y1="24" y2="13.125" gradientUnits="userSpaceOnUse"><stop stop-color="#9deaff"/><stop offset="1" stop-color="#fff"/></linearGradient><linearGradient id="fluentColorClipboardTextEdit323" x1="17.5" x2="8.622" y1="24" y2="13.125" gradientUnits="userSpaceOnUse"><stop stop-color="#9deaff"/><stop offset="1" stop-color="#fff"/></linearGradient><linearGradient id="fluentColorClipboardTextEdit324" x1="16" x2="16" y1="2" y2="8" gradientUnits="userSpaceOnUse"><stop stop-color="#ffe06b"/><stop offset="1" stop-color="#fab500"/></linearGradient><linearGradient id="fluentColorClipboardTextEdit325" x1="19.861" x2="26.044" y1="19.948" y2="26.149" gradientUnits="userSpaceOnUse"><stop stop-color="#ffa43d"/><stop offset="1" stop-color="#fb5937"/></linearGradient><linearGradient id="fluentColorClipboardTextEdit326" x1="28.502" x2="25.869" y1="17.485" y2="19.969" gradientUnits="userSpaceOnUse"><stop stop-color="#f97dbd"/><stop offset="1" stop-color="#dd3ce2"/></linearGradient><linearGradient id="fluentColorClipboardTextEdit327" x1="25.469" x2="21.489" y1="21.664" y2="19.902" gradientUnits="userSpaceOnUse"><stop stop-color="#ff921f"/><stop offset="1" stop-color="#ffe994"/></linearGradient><linearGradient id="fluentColorClipboardTextEdit328" x1="14.174" x2="18.325" y1="26.847" y2="30.975" gradientUnits="userSpaceOnUse"><stop offset=".255" stop-color="#ffd394"/><stop offset="1" stop-color="#ff921f"/></linearGradient><radialGradient id="fluentColorClipboardTextEdit329" cx="0" cy="0" r="1" gradientTransform="matrix(8.9375 0 0 7.86963 16 2.556)" gradientUnits="userSpaceOnUse"><stop stop-color="#0a1852"/><stop offset="1" stop-color="#0a1852" stop-opacity="0"/></radialGradient><radialGradient id="fluentColorClipboardTextEdit32a" cx="0" cy="0" r="1" gradientTransform="matrix(8.9375 0 0 8.87743 16 2.556)" gradientUnits="userSpaceOnUse"><stop stop-color="#0a1852"/><stop offset="1" stop-color="#0a1852" stop-opacity="0"/></radialGradient><radialGradient id="fluentColorClipboardTextEdit32b" cx="0" cy="0" r="1" gradientTransform="matrix(-10.31253 10.11112 -4.54174 -4.6322 23.563 22.778)" gradientUnits="userSpaceOnUse"><stop stop-color="#0a1852"/><stop offset="1" stop-color="#0a1852" stop-opacity="0"/></radialGradient></defs></g></svg>