<?xml version="1.0" standalone="no"?><!DOCTYPE svg PUBLIC "-//W3C//DTD SVG 1.1//EN" "http://www.w3.org/Graphics/SVG/1.1/DTD/svg11.dtd"><svg t="1706500706909" class="icon" viewBox="0 0 1024 1024" version="1.1" xmlns="http://www.w3.org/2000/svg" p-id="5908" xmlns:xlink="http://www.w3.org/1999/xlink" width="200" height="200"><path d="M278.528 485.376c-113.664 0-206.336-92.672-206.336-206.336s92.672-206.336 206.336-206.336 206.336 92.672 206.336 206.336-92.16 206.336-206.336 206.336z m0-340.992c-74.24 0-134.656 60.416-134.656 134.656s60.416 134.656 134.656 134.656S413.184 353.28 413.184 279.04 352.768 144.384 278.528 144.384z" fill="#FFBB12" p-id="5909"></path><path d="M394.24 955.904H162.816c-50.176 0-90.624-40.448-90.624-90.624v-231.424c0-50.176 40.448-90.624 90.624-90.624H394.24c50.176 0 90.624 40.448 90.624 90.624V865.28c0 49.664-40.448 90.624-90.624 90.624z m-231.424-340.992c-10.24 0-18.944 8.704-18.944 18.944V865.28c0 10.24 8.704 18.944 18.944 18.944H394.24c10.24 0 18.944-8.704 18.944-18.944v-231.424c0-10.24-8.704-18.944-18.944-18.944H162.816z" fill="#7A7A7A" p-id="5910"></path><path d="M394.24 955.904H162.816c-50.176 0-90.624-40.448-90.624-90.624v-231.424c0-50.176 40.448-90.624 90.624-90.624H394.24c50.176 0 90.624 40.448 90.624 90.624V865.28c0 49.664-40.448 90.624-90.624 90.624z m-231.424-340.992c-10.24 0-18.944 8.704-18.944 18.944V865.28c0 10.24 8.704 18.944 18.944 18.944H394.24c10.24 0 18.944-8.704 18.944-18.944v-231.424c0-10.24-8.704-18.944-18.944-18.944H162.816zM860.672 956.416h-231.424c-50.176 0-90.624-40.448-90.624-90.624v-231.424c0-50.176 40.448-90.624 90.624-90.624h231.424c50.176 0 90.624 40.448 90.624 90.624v231.424c0 50.176-40.96 90.624-90.624 90.624z m-231.424-340.992c-10.24 0-18.944 8.704-18.944 18.944v231.424c0 10.24 8.704 18.944 18.944 18.944h231.424c10.24 0 18.944-8.704 18.944-18.944v-231.424c0-10.24-8.704-18.944-18.944-18.944h-231.424zM860.672 485.376h-231.424c-50.176 0-90.624-40.448-90.624-90.624V163.328c0-50.176 40.448-90.624 90.624-90.624h231.424c50.176 0 90.624 40.448 90.624 90.624v231.424c0 50.176-40.96 90.624-90.624 90.624z m-231.424-340.992c-10.24 0-18.944 8.704-18.944 18.944v231.424c0 10.24 8.704 18.944 18.944 18.944h231.424c10.24 0 18.944-8.704 18.944-18.944V163.328c0-10.24-8.704-18.944-18.944-18.944h-231.424z" fill="#2E77ED" p-id="5911"></path></svg>