<svg xmlns="http://www.w3.org/2000/svg" width="1em" height="1em" viewBox="0 0 28 28"><g fill="none"><path fill="url(#fluentColorPeopleHome280)" d="M20 16a3 3 0 0 1 3 3v.715C23 23.292 18.79 26 13 26S3 23.433 3 19.715V19a3 3 0 0 1 3-3z"/><path fill="url(#fluentColorPeopleHome281)" d="M20 16a3 3 0 0 1 3 3v.715C23 23.292 18.79 26 13 26S3 23.433 3 19.715V19a3 3 0 0 1 3-3z"/><path fill="url(#fluentColorPeopleHome286)" fill-opacity="0.75" d="M20 16a3 3 0 0 1 3 3v.715C23 23.292 18.79 26 13 26S3 23.433 3 19.715V19a3 3 0 0 1 3-3z"/><path fill="url(#fluentColorPeopleHome287)" fill-opacity="0.55" d="M20 16a3 3 0 0 1 3 3v.715C23 23.292 18.79 26 13 26S3 23.433 3 19.715V19a3 3 0 0 1 3-3z"/><path fill="url(#fluentColorPeopleHome282)" d="M13 2a6 6 0 1 1 0 12a6 6 0 0 1 0-12"/><path fill="#d9d9d9" d="M18 21.5h5V27h-5z"/><path fill="url(#fluentColorPeopleHome283)" d="M18 21.5h5V27h-5z"/><path fill="#212121" d="M19.61 15.906a1.376 1.376 0 0 1 1.781 0l4.125 3.506c.307.261.484.644.484 1.048v5.483c0 .584-.474 1.058-1.058 1.058L22.499 27v-4.153a.846.846 0 0 0-.842-.846h-2.315a.845.845 0 0 0-.842.846v4.154h-2.443a1.06 1.06 0 0 1-1.058-1.058V20.46c0-.403.177-.786.484-1.048l4.125-3.506z"/><path fill="url(#fluentColorPeopleHome284)" d="M19.61 15.906a1.376 1.376 0 0 1 1.781 0l4.125 3.506c.307.261.484.644.484 1.048v5.483c0 .584-.474 1.058-1.058 1.058L22.499 27v-4.153a.846.846 0 0 0-.842-.846h-2.315a.845.845 0 0 0-.842.846v4.154h-2.443a1.06 1.06 0 0 1-1.058-1.058V20.46c0-.403.177-.786.484-1.048l4.125-3.506z"/><path fill="#000" fill-rule="evenodd" d="M19.846 14.993a1 1 0 0 1 1.308 0l5.5 4.75a1 1 0 1 1-1.308 1.514L20.5 17.07l-4.846 4.186a1 1 0 1 1-1.308-1.514z" clip-rule="evenodd"/><path fill="url(#fluentColorPeopleHome285)" fill-rule="evenodd" d="M19.846 14.993a1 1 0 0 1 1.308 0l5.5 4.75a1 1 0 1 1-1.308 1.514L20.5 17.07l-4.846 4.186a1 1 0 1 1-1.308-1.514z" clip-rule="evenodd"/><defs><linearGradient id="fluentColorPeopleHome280" x1="7.756" x2="10.987" y1="17.329" y2="27.647" gradientUnits="userSpaceOnUse"><stop offset=".125" stop-color="#9c6cfe"/><stop offset="1" stop-color="#7a41dc"/></linearGradient><linearGradient id="fluentColorPeopleHome281" x1="13" x2="17.524" y1="14.809" y2="31.714" gradientUnits="userSpaceOnUse"><stop stop-color="#885edb" stop-opacity="0"/><stop offset="1" stop-color="#e362f8"/></linearGradient><linearGradient id="fluentColorPeopleHome282" x1="9.854" x2="15.969" y1="3.595" y2="13.361" gradientUnits="userSpaceOnUse"><stop offset=".125" stop-color="#9c6cfe"/><stop offset="1" stop-color="#7a41dc"/></linearGradient><linearGradient id="fluentColorPeopleHome283" x1="20.5" x2="17.221" y1="21.5" y2="28.127" gradientUnits="userSpaceOnUse"><stop stop-color="#944600"/><stop offset="1" stop-color="#cd8e02"/></linearGradient><linearGradient id="fluentColorPeopleHome284" x1="16.049" x2="25.723" y1="16.846" y2="25.78" gradientUnits="userSpaceOnUse"><stop stop-color="#ffd394"/><stop offset="1" stop-color="#ffb357"/></linearGradient><linearGradient id="fluentColorPeopleHome285" x1="21.119" x2="19.978" y1="12.831" y2="20.908" gradientUnits="userSpaceOnUse"><stop stop-color="#ff921f"/><stop offset="1" stop-color="#eb4824"/></linearGradient><radialGradient id="fluentColorPeopleHome286" cx="0" cy="0" r="1" gradientTransform="matrix(0 5.5 -2.9375 0 17 24)" gradientUnits="userSpaceOnUse"><stop offset=".042" stop-color="#0a1852" stop-opacity="0.75"/><stop offset="1" stop-color="#0a1852" stop-opacity="0"/></radialGradient><radialGradient id="fluentColorPeopleHome287" cx="0" cy="0" r="1" gradientTransform="rotate(90 -3 18)scale(1.5)" gradientUnits="userSpaceOnUse"><stop stop-color="#0a1852" stop-opacity="0.75"/><stop offset="1" stop-color="#0a1852" stop-opacity="0"/></radialGradient></defs></g></svg>