<svg xmlns="http://www.w3.org/2000/svg" width="1em" height="1em" viewBox="0 0 24 24"><path fill="#4695fb" fill-rule="evenodd" d="M3.516 15.725c.271-.019.618-.02 1.116-.02h14.736c.498 0 .845.001 1.117.02c.266.018.422.052.54.102c.387.161.695.47.855.86c.049.119.083.275.101.543c.019.273.019.622.019 1.123c0 .5 0 .85-.019 1.123c-.018.268-.052.424-.101.544c-.16.389-.468.698-.855.86c-.118.049-.274.083-.54.101c-.272.019-.619.019-1.117.019H4.632c-.498 0-.845 0-1.116-.019c-.267-.018-.423-.053-.541-.102a1.58 1.58 0 0 1-.855-.86c-.049-.119-.083-.275-.101-.543A18 18 0 0 1 2 18.353c0-.5 0-.85.019-1.123c.018-.268.052-.424.101-.544c.16-.389.468-.698.855-.86c.118-.049.274-.083.54-.101m1.116 3.687c.58 0 1.052-.474 1.052-1.06c0-.584-.471-1.058-1.052-1.058s-1.053.474-1.053 1.059s.471 1.059 1.053 1.059m.001-11.118c-.498 0-.845 0-1.116-.019c-.267-.018-.423-.052-.541-.102a1.58 1.58 0 0 1-.855-.86c-.049-.119-.083-.275-.101-.543A18 18 0 0 1 2 5.647c0-.5 0-.85.019-1.123c.018-.268.052-.424.101-.544c.16-.389.468-.698.855-.86c.118-.049.274-.083.54-.101A18 18 0 0 1 4.633 3h14.736c.498 0 .845 0 1.117.019c.266.018.422.052.54.102c.387.161.695.47.855.86c.049.119.083.275.101.543c.019.274.019.622.019 1.123c0 .5 0 .85-.019 1.123c-.018.268-.052.424-.101.544c-.16.389-.468.698-.855.86c-.118.049-.274.083-.54.101a18 18 0 0 1-1.117.02zm0 1.059c-.498 0-.845 0-1.116.019c-.267.018-.423.052-.541.102a1.58 1.58 0 0 0-.855.86c-.049.119-.083.275-.101.543C2 11.15 2 11.5 2 12s0 .85.019 1.123c.018.268.052.424.101.544c.16.389.468.698.855.86c.118.049.274.083.54.101c.272.019.619.02 1.117.02h14.736c.498 0 .845-.001 1.117-.02c.266-.018.422-.052.54-.102a1.58 1.58 0 0 0 .855-.86c.049-.119.083-.275.101-.543C22 12.85 22 12.5 22 12s0-.85-.019-1.123c-.018-.268-.052-.424-.101-.544a1.58 1.58 0 0 0-.855-.86c-.118-.049-.274-.083-.54-.101a18 18 0 0 0-1.117-.02zM5.684 12c0 .585-.471 1.059-1.052 1.059A1.056 1.056 0 0 1 3.579 12c0-.585.471-1.059 1.053-1.059c.58 0 1.052.474 1.052 1.059M4.632 6.706c.58 0 1.052-.474 1.052-1.059s-.471-1.059-1.052-1.059s-1.053.474-1.053 1.06c0 .584.471 1.058 1.053 1.058" clip-rule="evenodd"/></svg>