<svg t="1729236097983" class="icon" viewBox="0 0 1152 1024" version="1.1" xmlns="http://www.w3.org/2000/svg" p-id="3743" width="200" height="200"><path d="M170.666667 661.333333h810.666666c12.8 0 21.333333 8.533333 21.333334 21.333334v149.333333c0 10.666667-8.533333 21.333333-21.333334 21.333333-10.666667 0-21.333333 8.533333-21.333333 21.333334v21.333333c0 12.8-8.533333 21.333333-21.333333 21.333333H213.333333c-10.666667 0-21.333333-8.533333-21.333333-21.333333v-21.333333c0-10.666667-10.666667-21.333333-21.333333-21.333334-12.8 0-21.333333-8.533333-21.333334-21.333333v-149.333333c0-12.8 8.533333-21.333333 21.333334-21.333334zM170.666667 106.666667h810.666666c12.8 0 21.333333 8.533333 21.333334 21.333333v149.333333c0 10.666667-8.533333 21.333333-21.333334 21.333334-10.666667 0-21.333333 8.533333-21.333333 21.333333 0 10.666667-8.533333 21.333333-21.333333 21.333333H213.333333c-10.666667 0-21.333333-8.533333-21.333333-21.333333v-2.133333c0-10.666667-10.666667-21.333333-21.333333-21.333334-12.8 0-21.333333-8.533333-21.333334-21.333333V128c0-12.8 8.533333-21.333333 21.333334-21.333333z m0 277.333333h810.666666c12.8 0 21.333333 8.533333 21.333334 21.333333v149.333334c0 10.666667-8.533333 21.333333-21.333334 21.333333-10.666667 0-21.333333 8.533333-21.333333 21.333333 0 10.666667-8.533333 21.333333-21.333333 21.333334H213.333333c-10.666667 0-21.333333-8.533333-21.333333-21.333334v-2.133333c0-10.666667-10.666667-21.333333-21.333333-21.333333-12.8 0-21.333333-8.533333-21.333334-21.333334v-149.333333c0-10.666667 8.533333-19.2 21.333334-19.2z m64 320c-12.8 0-21.333333 8.533333-21.333334 21.333333v42.666667c0 12.8 8.533333 21.333333 21.333334 21.333333h234.666666c12.8 0 21.333333-8.533333 21.333334-21.333333v-42.666667c0-12.8-8.533333-21.333333-21.333334-21.333333H234.666667z m0-554.666667c-12.8 0-21.333333 8.533333-21.333334 21.333334v42.666666c0 12.8 8.533333 21.333333 21.333334 21.333334h234.666666c12.8 0 21.333333-8.533333 21.333334-21.333334V170.666667c0-12.8-8.533333-21.333333-21.333334-21.333334H234.666667z m0 277.333334c-12.8 0-21.333333 8.533333-21.333334 21.333333v42.666667c0 12.8 8.533333 21.333333 21.333334 21.333333h234.666666c12.8 0 21.333333-8.533333 21.333334-21.333333v-42.666667c0-12.8-8.533333-21.333333-21.333334-21.333333H234.666667z m426.666666 277.333333c-12.8 0-21.333333 8.533333-21.333333 21.333333v42.666667c0 12.8 8.533333 21.333333 21.333333 21.333333s21.333333-8.533333 21.333334-21.333333v-42.666667c0-12.8-8.533333-21.333333-21.333334-21.333333z m0-554.666667c-12.8 0-21.333333 8.533333-21.333333 21.333334v42.666666c0 12.8 8.533333 21.333333 21.333333 21.333334s21.333333-8.533333 21.333334-21.333334V170.666667c0-12.8-8.533333-21.333333-21.333334-21.333334z m85.333334 554.666667c-12.8 0-21.333333 8.533333-21.333334 21.333333v42.666667c0 12.8 8.533333 21.333333 21.333334 21.333333s21.333333-8.533333 21.333333-21.333333v-42.666667c0-12.8-8.533333-21.333333-21.333333-21.333333z m0-554.666667c-12.8 0-21.333333 8.533333-21.333334 21.333334v42.666666c0 12.8 8.533333 21.333333 21.333334 21.333334s21.333333-8.533333 21.333333-21.333334V170.666667c0-12.8-8.533333-21.333333-21.333333-21.333334z m85.333333 554.666667c-12.8 0-21.333333 8.533333-21.333333 21.333333v42.666667c0 12.8 8.533333 21.333333 21.333333 21.333333s21.333333-8.533333 21.333333-21.333333v-42.666667c0-12.8-8.533333-21.333333-21.333333-21.333333z m0-554.666667c-12.8 0-21.333333 8.533333-21.333333 21.333334v42.666666c0 12.8 8.533333 21.333333 21.333333 21.333334s21.333333-8.533333 21.333333-21.333334V170.666667c0-12.8-8.533333-21.333333-21.333333-21.333334z m85.333333 554.666667c-12.8 0-21.333333 8.533333-21.333333 21.333333v42.666667c0 12.8 8.533333 21.333333 21.333333 21.333333s21.333333-8.533333 21.333334-21.333333v-42.666667c0-12.8-8.533333-21.333333-21.333334-21.333333z m0-554.666667c-12.8 0-21.333333 8.533333-21.333333 21.333334v42.666666c0 12.8 8.533333 21.333333 21.333333 21.333334s21.333333-8.533333 21.333334-21.333334V170.666667c0-12.8-8.533333-21.333333-21.333334-21.333334zM661.333333 426.666667c-12.8 0-21.333333 8.533333-21.333333 21.333333v42.666667c0 12.8 8.533333 21.333333 21.333333 21.333333s21.333333-8.533333 21.333334-21.333333v-42.666667c0-12.8-8.533333-21.333333-21.333334-21.333333z m85.333334 0c-12.8 0-21.333333 8.533333-21.333334 21.333333v42.666667c0 12.8 8.533333 21.333333 21.333334 21.333333s21.333333-8.533333 21.333333-21.333333v-42.666667c0-12.8-8.533333-21.333333-21.333333-21.333333z m85.333333 0c-12.8 0-21.333333 8.533333-21.333333 21.333333v42.666667c0 12.8 8.533333 21.333333 21.333333 21.333333s21.333333-8.533333 21.333333-21.333333v-42.666667c0-12.8-8.533333-21.333333-21.333333-21.333333z m85.333333 0c-12.8 0-21.333333 8.533333-21.333333 21.333333v42.666667c0 12.8 8.533333 21.333333 21.333333 21.333333s21.333333-8.533333 21.333334-21.333333v-42.666667c0-12.8-8.533333-21.333333-21.333334-21.333333z" fill="#0FBF73" p-id="3744"></path><path d="M241.066667 170.666667h221.866666c4.266667 0 6.4 2.133333 6.4 6.4v29.866666c0 4.266667-2.133333 6.4-6.4 6.4H241.066667c-4.266667 0-6.4-2.133333-6.4-6.4V177.066667c0-4.266667 2.133333-6.4 6.4-6.4z m0 277.333333h115.2c4.266667 0 6.4 2.133333 6.4 6.4v29.866667c0 4.266667-2.133333 6.4-6.4 6.4h-115.2c-4.266667 0-6.4-2.133333-6.4-6.4v-29.866667c0-4.266667 2.133333-6.4 6.4-6.4z m0 277.333333h179.2c4.266667 0 6.4 2.133333 6.4 6.4v29.866667c0 4.266667-2.133333 6.4-6.4 6.4h-179.2c-4.266667 0-6.4-2.133333-6.4-6.4v-29.866667c0-4.266667 2.133333-6.4 6.4-6.4z" fill="#5BFF85" p-id="3745"></path></svg>