<svg xmlns="http://www.w3.org/2000/svg" width="1em" height="1em" viewBox="0 0 20 20"><g fill="none"><path fill="url(#fluentColorPeopleTeam200)" d="M14.25 8C13.56 8 13 8.56 13 9.25V13c0 1.486 1.25 3 2.5 3s2.5-1.514 2.5-3V9.25C18 8.56 17.44 8 16.75 8z"/><path fill="url(#fluentColorPeopleTeam209)" fill-opacity="0.5" d="M14.25 8C13.56 8 13 8.56 13 9.25V13c0 1.486 1.25 3 2.5 3s2.5-1.514 2.5-3V9.25C18 8.56 17.44 8 16.75 8z"/><path fill="url(#fluentColorPeopleTeam201)" d="M3.25 8C2.56 8 2 8.56 2 9.25V13c0 1.486 1.25 3 2.5 3S7 14.486 7 13V9.25C7 8.56 6.44 8 5.75 8z"/><path fill="url(#fluentColorPeopleTeam20a)" fill-opacity="0.5" d="M3.25 8C2.56 8 2 8.56 2 9.25V13c0 1.486 1.25 3 2.5 3S7 14.486 7 13V9.25C7 8.56 6.44 8 5.75 8z"/><path fill="url(#fluentColorPeopleTeam202)" d="M6 9.25C6 8.56 6.56 8 7.25 8h5.5c.69 0 1.25.56 1.25 1.25V14a4 4 0 0 1-8 0z"/><path fill="url(#fluentColorPeopleTeam203)" d="M6 9.25C6 8.56 6.56 8 7.25 8h5.5c.69 0 1.25.56 1.25 1.25V14a4 4 0 0 1-8 0z"/><path fill="url(#fluentColorPeopleTeam204)" d="M17.5 5a2 2 0 1 1-4 0a2 2 0 0 1 4 0m-2 2a2 2 0 1 0 0-4a2 2 0 0 0 0 4"/><path fill="url(#fluentColorPeopleTeam205)" d="M17.5 5a2 2 0 1 1-4 0a2 2 0 0 1 4 0"/><path fill="url(#fluentColorPeopleTeam206)" d="M6.5 5a2 2 0 1 1-4 0a2 2 0 0 1 4 0m-2 2a2 2 0 1 0 0-4a2 2 0 0 0 0 4"/><path fill="url(#fluentColorPeopleTeam207)" d="M6.5 5a2 2 0 1 1-4 0a2 2 0 0 1 4 0"/><path fill="url(#fluentColorPeopleTeam208)" d="M12.5 4.5a2.5 2.5 0 1 1-5 0a2.5 2.5 0 0 1 5 0"/><defs><linearGradient id="fluentColorPeopleTeam200" x1="14.189" x2="18.721" y1="9.063" y2="13.586" gradientUnits="userSpaceOnUse"><stop offset=".125" stop-color="#7a41dc"/><stop offset="1" stop-color="#5b2ab5"/></linearGradient><linearGradient id="fluentColorPeopleTeam201" x1="3.189" x2="7.721" y1="9.063" y2="13.586" gradientUnits="userSpaceOnUse"><stop offset=".125" stop-color="#9c6cfe"/><stop offset="1" stop-color="#7a41dc"/></linearGradient><linearGradient id="fluentColorPeopleTeam202" x1="7.902" x2="13.402" y1="9.329" y2="16.354" gradientUnits="userSpaceOnUse"><stop offset=".125" stop-color="#bd96ff"/><stop offset="1" stop-color="#9c6cfe"/></linearGradient><linearGradient id="fluentColorPeopleTeam203" x1="10" x2="18.372" y1="6.81" y2="19.324" gradientUnits="userSpaceOnUse"><stop stop-color="#885edb" stop-opacity="0"/><stop offset="1" stop-color="#e362f8"/></linearGradient><linearGradient id="fluentColorPeopleTeam204" x1="14.451" x2="16.49" y1="3.532" y2="6.787" gradientUnits="userSpaceOnUse"><stop offset=".125" stop-color="#7a41dc"/><stop offset="1" stop-color="#5b2ab5"/></linearGradient><linearGradient id="fluentColorPeopleTeam205" x1="14.451" x2="16.49" y1="3.532" y2="6.787" gradientUnits="userSpaceOnUse"><stop offset=".125" stop-color="#7a41dc"/><stop offset="1" stop-color="#5b2ab5"/></linearGradient><linearGradient id="fluentColorPeopleTeam206" x1="3.451" x2="5.49" y1="3.532" y2="6.787" gradientUnits="userSpaceOnUse"><stop offset=".125" stop-color="#9c6cfe"/><stop offset="1" stop-color="#7a41dc"/></linearGradient><linearGradient id="fluentColorPeopleTeam207" x1="3.451" x2="5.49" y1="3.532" y2="6.787" gradientUnits="userSpaceOnUse"><stop offset=".125" stop-color="#9c6cfe"/><stop offset="1" stop-color="#7a41dc"/></linearGradient><linearGradient id="fluentColorPeopleTeam208" x1="8.689" x2="11.237" y1="2.665" y2="6.734" gradientUnits="userSpaceOnUse"><stop offset=".125" stop-color="#bd96ff"/><stop offset="1" stop-color="#9c6cfe"/></linearGradient><radialGradient id="fluentColorPeopleTeam209" cx="0" cy="0" r="1" gradientTransform="matrix(4.02372 0 0 10.9215 12.214 11.813)" gradientUnits="userSpaceOnUse"><stop offset=".433" stop-color="#3b148a"/><stop offset="1" stop-color="#3b148a" stop-opacity="0"/></radialGradient><radialGradient id="fluentColorPeopleTeam20a" cx="0" cy="0" r="1" gradientTransform="matrix(-4.45292 0 0 -12.0865 8.62 11.813)" gradientUnits="userSpaceOnUse"><stop offset=".433" stop-color="#3b148a"/><stop offset="1" stop-color="#3b148a" stop-opacity="0"/></radialGradient></defs></g></svg>