<svg t="1727512498232" class="icon" viewBox="0 0 1024 1024" version="1.1" xmlns="http://www.w3.org/2000/svg" p-id="12341" width="200" height="200"><path d="M515.063 962.072c-59.938 0-118.09-11.739-172.841-34.895-52.875-22.362-100.356-54.373-141.125-95.14-40.77-40.771-72.779-88.252-95.141-141.126-23.153-54.748-34.893-112.899-34.893-172.841s11.739-118.093 34.893-172.84c22.361-52.875 54.371-100.356 95.141-141.125s88.25-72.779 141.125-95.141c54.746-23.153 112.898-34.893 172.841-34.893s118.096 11.74 172.843 34.893c52.875 22.362 100.354 54.373 141.126 95.141 40.771 40.772 72.779 88.254 95.138 141.125 23.154 54.75 34.896 112.902 34.896 172.841 0 59.938-11.74 118.091-34.896 172.841-22.358 52.873-54.369 100.354-95.139 141.126-40.77 40.767-88.249 72.776-141.126 95.14-54.752 23.155-112.905 34.894-172.842 34.894z m0-778.647c-184.553 0-334.696 150.122-334.696 334.647S330.511 852.72 515.063 852.72c184.555 0 334.7-150.122 334.7-334.647s-150.147-334.648-334.7-334.648z" fill="#036EB8" p-id="12342"></path><path d="M615.471 607.359c0 18.461-14.921 33.461-33.423 33.461-18.463 0-33.423-14.96-33.463-33.384h-0.04v-178.53h0.04v-0.08c0-18.462 14.921-33.502 33.463-33.502 18.502 0 33.423 15.041 33.423 33.502v178.533M481.621 607.359c0 18.461-14.96 33.461-33.501 33.461-18.421 0-33.423-14.96-33.423-33.384h-0.04v-178.53h0.04v-0.08c0-18.462 15.001-33.502 33.423-33.502 18.541 0 33.501 15.041 33.501 33.502v178.533" fill="#00A0E9" p-id="12343"></path></svg>