<svg xmlns="http://www.w3.org/2000/svg" width="1em" height="1em" viewBox="0 0 48 48"><g fill="none"><path fill="url(#fluentColorGlobeShield483)" d="M24 44c11.046 0 20-8.954 20-20S35.046 4 24 4S4 12.954 4 24s8.954 20 20 20"/><path fill="url(#fluentColorGlobeShield480)" fill-opacity="0.7" d="M24 44c11.046 0 20-8.954 20-20S35.046 4 24 4S4 12.954 4 24s8.954 20 20 20"/><path fill="url(#fluentColorGlobeShield481)" fill-opacity="0.2" d="M24 44c11.046 0 20-8.954 20-20S35.046 4 24 4S4 12.954 4 24s8.954 20 20 20"/><path fill="url(#fluentColorGlobeShield482)" fill-rule="evenodd" d="M18.91 4.653c-.794 1.07-1.506 2.371-2.124 3.834c-.904 2.14-1.634 4.69-2.12 7.513H5.664a20 20 0 0 0-.898 2.5h9.543A49 49 0 0 0 14 24c0 2.075.13 4.088.37 6H4.915q.406 1.291.976 2.5h8.864c.484 2.624 1.18 5 2.03 7.013c.62 1.463 1.331 2.763 2.125 3.834A20 20 0 0 0 24 44a20 20 0 0 0 5.09-.653c.793-1.07 1.506-2.371 2.124-3.834c.85-2.013 1.547-4.39 2.03-7.013h8.865q.57-1.209.975-2.5H33.63c.24-1.912.37-3.925.37-6c0-1.895-.108-3.738-.31-5.5h9.544a20 20 0 0 0-.898-2.5h-9.002c-.486-2.822-1.216-5.373-2.12-7.513c-.618-1.463-1.33-2.763-2.124-3.834A20 20 0 0 0 24 4c-1.759 0-3.465.227-5.09.653M17.205 16c.454-2.478 1.105-4.696 1.884-6.54c.776-1.836 1.656-3.245 2.547-4.175C22.533 4.35 23.34 4 24 4s1.466.35 2.363 1.285c.892.93 1.772 2.34 2.548 4.176c.78 1.843 1.43 4.06 1.883 6.539zM24 44c.661 0 1.466-.35 2.363-1.285c.892-.93 1.772-2.34 2.548-4.176c.726-1.718 1.34-3.762 1.788-6.039H17.3c.448 2.277 1.063 4.32 1.789 6.04c.776 1.836 1.656 3.245 2.547 4.175C22.533 43.65 23.34 44 24 44m-7.5-20c0 2.093.139 4.107.39 6h14.22c.251-1.893.39-3.907.39-6c0-1.91-.116-3.754-.327-5.5H16.827A46 46 0 0 0 16.5 24" clip-rule="evenodd"/><path fill="url(#fluentColorGlobeShield484)" d="M28.002 40.462a11 11 0 0 1-.942-1.612Q26 36.614 26 33.9v-5.775a.83.83 0 0 1 .833-.825q2.333 0 4.606-.863a16 16 0 0 0 2.547-1.253a19 19 0 0 0 1.514-1.019a.84.84 0 0 1 1 0q1.132.84 2.278 1.455q1.379.74 2.778 1.153a13 13 0 0 0 2.186.446q.71.081 1.425.081c.46 0 .833.37.833.825V33.9c0 5.501-3.286 9.543-9.695 12.043a.84.84 0 0 1-.61 0q-3.177-1.24-5.323-2.98a14 14 0 0 1-.63-.54q-.436-.4-.823-.823q-.501-.549-.917-1.138"/><defs><radialGradient id="fluentColorGlobeShield480" cx="0" cy="0" r="1" gradientTransform="rotate(180 18.172 17.156)scale(16.8029)" gradientUnits="userSpaceOnUse"><stop stop-color="#003580"/><stop offset="1" stop-color="#003580" stop-opacity="0"/></radialGradient><radialGradient id="fluentColorGlobeShield481" cx="0" cy="0" r="1" gradientTransform="matrix(20.93752 15.93753 -17.2887 22.71257 37.125 34)" gradientUnits="userSpaceOnUse"><stop offset=".412" stop-color="#1b44b1"/><stop offset="1" stop-color="#1b44b1" stop-opacity="0"/></radialGradient><radialGradient id="fluentColorGlobeShield482" cx="0" cy="0" r="1" gradientTransform="matrix(20.00804 18.268 -19.5133 21.37196 37.506 37)" gradientUnits="userSpaceOnUse"><stop offset=".445" stop-color="#3bd5ff" stop-opacity="0"/><stop offset=".815" stop-color="#3bd5ff"/></radialGradient><linearGradient id="fluentColorGlobeShield483" x1="12.889" x2="41.778" y1="10.667" y2="37.333" gradientUnits="userSpaceOnUse"><stop stop-color="#29c3ff"/><stop offset="1" stop-color="#2052cb"/></linearGradient><linearGradient id="fluentColorGlobeShield484" x1="29.75" x2="46.026" y1="24" y2="45.23" gradientUnits="userSpaceOnUse"><stop stop-color="#62be55"/><stop offset="1" stop-color="#1e794a"/></linearGradient></defs></g></svg>