<?xml version="1.0" standalone="no"?><!DOCTYPE svg PUBLIC "-//W3C//DTD SVG 1.1//EN" "http://www.w3.org/Graphics/SVG/1.1/DTD/svg11.dtd"><svg t="1706423607034" class="icon" viewBox="0 0 1280 1024" version="1.1" xmlns="http://www.w3.org/2000/svg" p-id="10065" xmlns:xlink="http://www.w3.org/1999/xlink" width="250" height="200"><path d="M1011.2 842.5216c0 14.272-12.5824 25.8048-28.1088 25.8048H296.9472c-15.552 0-28.1472-11.52-28.1472-25.8048V213.056c0-14.272 12.5824-25.8176 28.1472-25.8176h686.144c15.5264 0 28.1088 11.5456 28.1088 25.8176v629.4656z" fill="#B3B3B3" p-id="10066"></path><path d="M1011.2 806.6688c0 14.144-12.5824 25.6512-28.1088 25.6512H296.9472c-15.552 0-28.1472-11.4944-28.1472-25.6512V181.2992c0-14.144 12.5824-25.6256 28.1472-25.6256h686.144c15.5264 0 28.1088 11.4816 28.1088 25.6256v625.3696z" fill="#E5E7E6" p-id="10067"></path><path d="M305.2928 363.7248H974.72v401.8048H305.2928z" fill="#FFFFFF" p-id="10068"></path><path d="M1011.2 181.2992c0-14.144-12.5824-25.6256-28.1088-25.6256H296.9472c-15.552 0-28.1472 11.4816-28.1472 25.6256v123.0976h742.4v-123.0976z" fill="#23B08D" p-id="10069"></path><path d="M621.6576 655.8208v-151.552h-54.1312v-30.848h144.9472v30.848h-54.016v151.552h-36.8z" fill="#B3B3B3" p-id="10070"></path></svg>