<svg t="1729221792940" class="icon" viewBox="0 0 1024 1024" version="1.1" xmlns="http://www.w3.org/2000/svg" p-id="24662" width="200" height="200"><path d="M806.8 160C692.6 99.7 593 130.1 524.6 176c-1.7 1.1-3.4 2.2-5.1 3.4-1.6 1.2-3.7 2.8-6.1 4.6 29.3 21.5 52 45.3 66.4 64.4 19.7 26 39 52 61.4 99.2 16.9 35.6 35.5 83.2 57.4 152.1 61.6 193.7 36 339.6-99.7 381.5 106.7-31.6 200.8-124.3 277-276.6 107.7-215.4 81.2-365.3-69.1-444.6z" fill="#00A9DC" p-id="24663"></path><path d="M698.6 499.7c-21.9-68.9-40.5-116.5-57.4-152.1v0.5c-11.1-17.4-32.6-26.5-102.5 4.4-54 23.9-173.8 65.5-141-30.1 17.2-32.1 32.8-53.1 48.7-74.1 6.9-9.1 15.9-19.3 26.3-29.8 11.5-11.6 25.1-23.4 40.5-34.7-12-8.8-25-17.2-39.1-24.7-66.4-35.5-155-51.8-254.7 0.8-150.3 79.4-176.8 229.3-69 444.8 21.6 43.2 44.7 81.5 69.1 115.1 10.8-30 36.2-83.9 80.2-96.6 11.6-3.4 24.4-4.2 38.8-0.5 32.2 8.3 20.3 38.2 80 40 24.2 0.8 52.1-9.1 81.5 40.8 25.3 42.8 53.6 3 80.8 49.8 23.9 41.2-11 104.8-2.8 133.2 3.8-0.8 17.7-4.3 20.9-5.2 135.7-42 161.3-187.8 99.7-381.6z" fill="#FB536C" p-id="24664"></path><path d="M513.4 184c-55.8 36.7-99.9 100.7-115.7 138.4-39.1 93.1 79.2 58.3 141 30.1 60.4-27.6 89.9-19.4 102.5-4.4v-0.5c-22.4-47.2-41.7-73.2-61.4-99.2-14.4-19.1-37.1-42.9-66.4-64.4zM580.9 753.3c-27.2-46.8-55.5-7.1-80.8-49.8-29.4-49.8-57.4-40-81.5-40.8-59.7-1.9-47.8-31.7-80-40-14.3-3.7-27.1-2.9-38.8 0.5-44 12.8-69.4 66.7-80.2 96.6 61.5 84.8 131.8 137.7 207.8 161.5 47.3 14.8 111.2 13.1 150.7 5.2-8.2-28.4 26.7-92 2.8-133.2z" fill="#8F3694" p-id="24665"></path></svg>