<svg xmlns="http://www.w3.org/2000/svg" width="1em" height="1em" viewBox="0 0 20 20"><g fill="none"><path fill="url(#fluentColorBookOpenLightbulb200)" d="M8 17c.818 0 1.544-.393 2-1l1-6l-1-5.5C9.544 3.893 8.818 3 8 3H3.5A1.5 1.5 0 0 0 2 4.5v11A1.5 1.5 0 0 0 3.5 17z"/><path fill="url(#fluentColorBookOpenLightbulb201)" d="M3.5 3.5A.5.5 0 0 1 4 3h4.5A1.5 1.5 0 0 1 10 4.5l.5 4.5l-.5 4.5a2 2 0 0 1-2 2H4a.5.5 0 0 1-.5-.5z"/><path fill="url(#fluentColorBookOpenLightbulb202)" d="M16.5 3A1.5 1.5 0 0 1 18 4.5V15h-3v2h-3a2.5 2.5 0 0 1-2-1V4.5C10 4 11 3 12 3z"/><path fill="url(#fluentColorBookOpenLightbulb203)" d="M16.5 3.5A.5.5 0 0 0 16 3h-4.5A1.5 1.5 0 0 0 10 4.5v9a2 2 0 0 0 2 2h4a.5.5 0 0 0 .5-.5z"/><path fill="url(#fluentColorBookOpenLightbulb206)" d="M16.5 3.5A.5.5 0 0 0 16 3h-4.5A1.5 1.5 0 0 0 10 4.5v9a2 2 0 0 0 2 2h4a.5.5 0 0 0 .5-.5z"/><path fill="url(#fluentColorBookOpenLightbulb207)" d="m14.6 17l.24 1.196a1 1 0 0 0 .98.804h.36a1 1 0 0 0 .98-.804L17.4 17l-1.534-.5z"/><path fill="url(#fluentColorBookOpenLightbulb204)" d="m14.6 17l.24 1.196a1 1 0 0 0 .98.804h.36a1 1 0 0 0 .98-.804L17.4 17l-1.534-.5z"/><path fill="url(#fluentColorBookOpenLightbulb208)" d="M19 13a3 3 0 0 1-1.294 2.468L17.6 16l-1.6.5l-1.6-.5l-.107-.532A3 3 0 1 1 19 13"/><path fill="url(#fluentColorBookOpenLightbulb205)" d="M17.4 17h-2.8l-.2-1h3.2z"/><defs><linearGradient id="fluentColorBookOpenLightbulb200" x1="5.105" x2="7.757" y1="5.619" y2="20.534" gradientUnits="userSpaceOnUse"><stop stop-color="#20ac9d"/><stop offset="1" stop-color="#2052cb"/></linearGradient><linearGradient id="fluentColorBookOpenLightbulb201" x1="4" x2="18.51" y1="5.5" y2="11.055" gradientUnits="userSpaceOnUse"><stop stop-color="#9deaff"/><stop offset="1" stop-color="#58aafe"/></linearGradient><linearGradient id="fluentColorBookOpenLightbulb202" x1="16.5" x2="13.252" y1="3.5" y2="20.539" gradientUnits="userSpaceOnUse"><stop stop-color="#20ac9d"/><stop offset=".908" stop-color="#2052cb"/></linearGradient><linearGradient id="fluentColorBookOpenLightbulb203" x1="16.51" x2="5" y1="3.73" y2="8" gradientUnits="userSpaceOnUse"><stop offset=".229" stop-color="#9deaff"/><stop offset=".853" stop-color="#4894fe"/></linearGradient><linearGradient id="fluentColorBookOpenLightbulb204" x1="16" x2="16" y1="16.5" y2="19" gradientUnits="userSpaceOnUse"><stop stop-color="#d34719"/><stop offset="1" stop-color="#d34719" stop-opacity="0"/></linearGradient><linearGradient id="fluentColorBookOpenLightbulb205" x1="15.747" x2="16.855" y1="16.397" y2="17.816" gradientUnits="userSpaceOnUse"><stop stop-color="#ffc7a3"/><stop offset="1" stop-color="#ff9c70"/></linearGradient><radialGradient id="fluentColorBookOpenLightbulb206" cx="0" cy="0" r="1" gradientTransform="matrix(-7.26476 -8.25854 8.14411 -7.1641 16.5 16)" gradientUnits="userSpaceOnUse"><stop offset=".208" stop-color="#2063c3"/><stop offset=".714" stop-color="#8ad6ff" stop-opacity="0"/></radialGradient><radialGradient id="fluentColorBookOpenLightbulb207" cx="0" cy="0" r="1" gradientTransform="matrix(1.73082 9.81897 -9.63493 1.69838 14.245 8.693)" gradientUnits="userSpaceOnUse"><stop stop-color="#ffe06b"/><stop offset=".376" stop-color="#ffa43d"/><stop offset="1" stop-color="#e67505"/></radialGradient><radialGradient id="fluentColorBookOpenLightbulb208" cx="0" cy="0" r="1" gradientTransform="rotate(73.656 -.19 14.732)scale(7.01007 10.8653)" gradientUnits="userSpaceOnUse"><stop stop-color="#ffe06b"/><stop offset=".376" stop-color="#ffa43d"/><stop offset="1" stop-color="#e67505"/></radialGradient></defs></g></svg>