<?xml version="1.0" encoding="UTF-8"?>
<svg xmlns="http://www.w3.org/2000/svg" version="1.1" viewBox="0 0 2000 1500">
  <defs>
    <style>
      .cls-1 {
        fill: #21292f;
      }

      .cls-2 {
        fill: transparent;
      }

      .cls-3 {
        fill: #232c32;
      }

      .cls-4 {
        fill: #212930;
      }

      .cls-5 {
        fill: #53666a;
      }

      .cls-6 {
        fill: #283137;
      }

      .cls-7 {
        fill: #242d33;
      }

      .cls-8 {
        fill: #262f36;
      }

      .cls-9 {
        fill: #1d5e67;
      }

      .cls-10 {
        fill: #9dbfc0;
      }

      .cls-11 {
        fill: #283138;
      }

      .cls-12 {
        fill: #fff;
      }

      .cls-13 {
        fill: #242c33;
      }

      .cls-14 {
        fill: #252d34;
      }

      .cls-15 {
        fill: #3a5942;
      }

      .cls-16 {
        fill: #262e35;
      }

      .cls-17 {
        fill: #272f36;
      }

      .cls-18 {
        fill: #273037;
      }

      .cls-19 {
        fill: #232b32;
      }

      .cls-20 {
        fill: #1f262d;
      }

      .cls-21 {
        fill: #ebe6cf;
      }

      .cls-22 {
        fill: #57793a;
      }

      .cls-23 {
        fill: #1f2c33;
      }

      .cls-24 {
        fill: #c2691b;
      }

      .cls-25 {
        fill: #fdf4e1;
      }

      .cls-26 {
        fill: #212b32;
      }

      .cls-27 {
        fill: #202930;
      }

      .cls-28 {
        fill: #1f2b32;
      }
    </style>
  </defs>
  <!-- Generator: Adobe Illustrator 28.6.0, SVG Export Plug-In . SVG Version: 1.2.0 Build 709)  -->
  <g>
    <g id="Layer_1">
      <rect class="cls-2" width="2000" height="1500"/>
      <g>
        <path class="cls-10" d="M586.7,820.3c.4,0,.7,0,1.1-.1.8-.8,2-.6,2.8-1.2.4,0,.7,0,1.1-.1.7-.7,1.9-.5,2.7-1.2h0c1-1.2,2.9-.2,4-1.3h0c1-1.3,2.9-.2,4-1.3h0c1-1.3,2.9-.2,4-1.3h0c1-1.3,2.9-.2,4-1.3h0c1.4-1.6,3.7,0,5.2-1.4h0c2.2-1.3,4.7-.6,7-.6,59.2,0,118.4,0,177.7,0,2.4,0,4.8.2,7.1-.2,3.7,1.1,7.5,2.3,11.4.9.6,0,1.3,0,1.9,0,1.9.5,3.9,1,5.9,1.2.5,0,1.1.3,1.6.4,1,.3,2,.7,3,1,.5.1,1,.3,1.5.5,1,.3,2,.5,3,.7.5.1,1,.3,1.4.4.9.3,1.8.7,2.7,1,.4.1.9.3,1.3.5.6.3,1.2.6,1.8.9.4.2.8.4,1.2.6.6.3,1.2.6,1.8.8.4.1.8.3,1.2.5.6.2,1.3.4,1.9.6.4.1.8.3,1.2.5.6.3,1.2.6,1.7.9.4.2.8.4,1.1.6.6.3,1.1.6,1.7.9.4.2.8.4,1.2.6.6.3,1.2.6,1.8.9.4.2.8.4,1.2.7.8.5,1.6,1.1,2.4,1.6.4.2.8.5,1.3.8.4.3.8.6,1.3.9.2.1.4.3.6.4,1.3.9,2.6,1.7,3.9,2.5.4.2.9.5,1.3.8.6.4,1.3.8,1.9,1.1.4.2.8.5,1.2.8.4.3.8.6,1.1.9.2.2.4.3.5.5.4.3.7.6,1.1.9.2.1.4.3.6.5.6.4,1.1.9,1.7,1.3.4.2.8.5,1.2.8.4.3.7.6,1.1.9.2.2.3.3.5.5.3.3.7.6,1,.9.2.1.4.3.5.4.4.2.8.5,1.1.7.4.2.7.5,1.1.7.4.3.7.6,1,.9.2.1.3.3.5.4.3.3.6.6.9.9,0,0,.4.5.4.4.3.3.6.6.9.9,0,0,.4.5.4.4.3.3.6.6.9.9,0,0,.4.4.4.4.3.3.6.6.9.9,0,0,.4.4.4.4.3.3.6.6.9.9,0,0,.4.4.4.4.3.3.6.6.9.9,0,0,.4.4.4.4.3.3.6.6.9.9,0,0,.4.4.4.4.3.3.6.6.9.9,0,0,.4.4.4.4.3.3.6.6.9.9,0,0,.4.5.4.4.3.3.6.6.9.9,0,0,.4.5.4.4.3.3.6.6.9.9,0,0,.4.5.4.4.3.3.6.6.8.9,0,0,.3.5.4.5.5.8,1-.6,1.5,0,.7.4,1,1.1,1,1.8,0,.4-.2.8-.3,1.2.2.4.4.7.7,1,.3.3.6.6.9.9.2.2.3.3.5.5.3.3.6.7.9,1.1.3.4.6.8.9,1.2.6.8,1.2,1.6,1.9,2.4.4.4.7.7,1,1.1.3.4.7.8,1,1.2.3.4.6.8.8,1.2.4.6.8,1.2,1.2,1.8.3.3.6.7.9,1.1.3.3.6.7.8,1.1.3.4.5.7.7,1.1.2.4.5.8.7,1.1.3.4.5.7.8,1.1.3.3.5.7.8,1.1.3.4.5.7.8,1.1.5.8,1.1,1.5,1.6,2.3.3.4.6.8.8,1.2.4.6.8,1.3,1.2,1.9.3.4.5.8.7,1.2.3.6.6,1.2.9,1.8.2.3.5.7.7,1.1.3.3.5.7.8,1,.3.3.5.7.7,1.1.2.4.4.7.6,1.1.2.4.4.7.5,1.1.3.6.5,1.1.8,1.7.2.4.4.8.6,1.1.3.6.6,1.2,1,1.8.3.4.5.8.8,1.2.4.6.8,1.2,1.2,1.8.3.4.5.8.8,1.2.4.6.7,1.3,1,1.9.2.4.4.9.5,1.3.2.6.4,1.3.7,1.9.2.4.4.8.7,1.2.3.4.5.8.7,1.1.2.4.4.8.6,1.2.2.6.4,1.3.6,1.9.2.4.3.8.5,1.2.2.6.5,1.2.8,1.7.2.4.4.7.6,1.1.3.6.5,1.1.8,1.7.2.4.4.7.6,1.1.3.6.6,1.2.9,1.8.2.4.4.8.5,1.2.2.6.4,1.2.6,1.9.2.4.3.8.5,1.2.2.6.5,1.2.8,1.7.2.4.4.7.6,1.1.3.6.5,1.1.8,1.7.2.4.4.8.6,1.2.3.6.6,1.2.9,1.8.2.4.4.9.5,1.3.2.7.5,1.3.7,2,.2.4.3.9.5,1.4.3.9.5,1.8.9,2.7.2.5.4.9.5,1.4.3,1,.6,1.9,1,2.9.2.5.4,1,.6,1.6,1,3.1,2,6.1,3,9.1.2.5.4,1.1.5,1.6.3,1.3.5,2.6.9,3.9.2.5.3,1,.4,1.5.3,1.2.4,2.5.8,3.7.2.5.3,1,.4,1.4.3,1,.6,1.9.9,2.9.2.5.4.9.5,1.4.3,1,.6,1.9,1,2.9.2.5.3,1,.4,1.5.2,1.5.3,3,.8,4.5.2.5.3,1,.4,1.5.3,1.3.5,2.5.9,3.8.2.5.3,1,.4,1.6.3,1.6.4,3.2.9,4.8.2.5.3,1.1.4,1.7.3,2.1.6,4.2,1.1,6.3,0,.3,0,.7.1,1,0,.7,0,1.5.2,2.2.4,19.9,5,39.8-1.2,59.5-1.4,4.6.5,7.2,5.4,7.2,20.2,0,40.4,1.1,60.5-.4,8.5-.6,16.9-.6,25.4-.7,12.6,0,25.2,0,37.8,0,60.3-.6,120.6-1.3,180.9-1.6,19.7,0,39.4,1,59.1,1.4,23.2.4,46.4-1.4,69.5-2.5,13.4-.6,26.9,0,40.3-.1,8.9-.1,17.6.2,26.5-1.4,9.6-1.7,19.4.8,29.2.4,3.8.6,4.8-1.4,5.2-4.8,2-14.4,2.8-28.7,1.5-43.3-1.7-18.5-3.4-37-6.5-55.3-3.8-22.3-12.7-42.7-24.6-61.8-7.3-11.8-14.8-23.4-22.9-34.7-14.7-20.5-34.2-35.4-55.3-48.5-5.3-3.3-10.9-6.2-16.6-8.9-1.4-.7-5.3-2.1-.6-4.2,42.9,0,85.9,1.1,128.7-.3,39.2-1.3,78.3-.3,117.5-.9,2.3,0,4.8-.7,7,.7h0c2,1.5,4.6-.2,6.5,1.2.4.1.8.1,1.2,0,1.1,1.1,2.8.2,4,1.2l2.4.2c1.2,1,3,0,4.1,1.2.4.1.7.1,1.1,0,1.2,1.1,3,0,4.1,1.2.3.1.7.2,1,0,1.2,1,3,0,4.1,1.3h0c2.4,1.6,5.5-.4,7.8,1.3h0c1.5,1.4,3.8-.2,5.3,1.3h0c1.5,1.4,3.8-.2,5.2,1.3h0c.8.6,1.9.4,2.7,1.1.3.1.7.2,1.1.1.8.6,2,.4,2.8,1.2.4.1.7.2,1.1.1,1.1,1.1,3,0,4.1,1.4h0c.8.6,2,.4,2.7,1.3h0c.8.6,2,.4,2.7,1.3h0c.8.6,2,.4,2.7,1.3h0c.8.6,2,.4,2.7,1.3h0c.8.6,2,.4,2.7,1.3h0c.5.3,1,.7,1.4,1.2h0c.7.7,2,.5,2.6,1.4h0c.8.7,2,.4,2.6,1.3h0c.5.3,1,.7,1.4,1.2h0c.7.7,2,.5,2.6,1.4h0c.5.3.9.8,1.4,1.2h0c.7.8,2,.5,2.6,1.4h0c.6.3,1,.7,1.4,1.3h0c.5.3.9.8,1.4,1.2h0c.7.8,2,.5,2.6,1.4h0c.6.3,1,.7,1.4,1.3h0c.5.3,1,.8,1.4,1.3h0c2.5,1.3,4.2,3.6,6.6,5.2h0c.5.3,1,.7,1.4,1.3h0c.5.3,1,.8,1.4,1.3h0c.5.3,1,.8,1.4,1.3h0c.5.3,1,.8,1.4,1.3h0c.5.3,1,.8,1.4,1.3h0c.5.3,1,.8,1.4,1.3h0c.5.3,1,.8,1.4,1.3h0c.9.5.6,1.8,1.5,2.4h0c.9.8,1.8,1.7,2.5,2.6h0c.4.5.8,1,1.2,1.4h0c.4.5.9.9,1.3,1.4h0c.5.4.9.8,1.3,1.4h0c.5.3,1,.8,1.4,1.3h0c.5.3,1,.8,1.4,1.3h0c.9.5.6,1.8,1.4,2.5h0c.4.5.8.9,1.3,1.3h0c.5.4.9.8,1.3,1.4h0c.9.6.6,1.8,1.4,2.5h0c.4.5.9.9,1.2,1.4h0c1.1,1.1,1.7,2.6,2.7,3.8h0c.4.5.9.9,1.2,1.4h0c.9.6.6,1.8,1.4,2.6h0c1.2,1.8,2.8,3.3,3.9,5.3h0c.9.6.6,1.8,1.4,2.6h0c.5.4.9.8,1.3,1.4h0c.9.6.7,1.8,1.4,2.5h0c.8.6.6,1.9,1.3,2.6h0c.8.7.6,1.9,1.3,2.6h0c1,1.2,1.8,2.6,2.6,4h0c.9.6.7,1.8,1.4,2.6h0c.9.6.7,1.8,1.3,2.6h0c.9.6.7,1.8,1.3,2.6h0c.9.6.7,1.8,1.3,2.6h0c.9.6.7,1.8,1.4,2.6h0c.9.6.7,1.8,1.3,2.6h0c1.3.9.2,2.8,1.4,3.8h0c.8.7.6,1.9,1.3,2.6h0c.8.7.6,1.9,1.3,2.6h0c1.2,1,.1,2.8,1.3,3.9h0c.8.7.6,1.9,1.3,2.7h0c1.3,1,.2,2.8,1.4,3.9h0c1.8,3.7,2.7,7.7,4,11.7h0c1.2,1,.1,2.9,1.3,3.9h0c.8.7.6,1.9,1.3,2.7h0c1.3,1,.3,2.9,1.3,4,0,.4,0,.7,0,1.1,1.3,1.1.2,2.9,1.3,4h0c1.5,1.4,0,3.7,1.3,5.2h0c1.3,1,.2,2.8,1.3,3.9h0c1.3,1,.2,2.8,1.3,3.9h0c1.8,2.3-.3,5.4,1.4,7.8h0c1.7,2.3-.4,5.4,1.4,7.8h0c1.5,2-.2,4.6,1.3,6.6h0c1.5,1.4,0,3.7,1.3,5.2h0c1.9,2.8-.3,6.2,1.3,9.1h0c2,3.7-.4,7.9,1.3,11.7h0c2,4.1-.4,8.8,1.3,13h0c1.5,3,.7,6.3.7,9.5.1,15.1,0,30.2,0,45.3,0,2.1.7,4.3-.7,6.3h0c-1.7,4.2.6,8.8-1.3,13h0c-1.6,3.3.5,7.1-1.3,10.4h0c-1.8,3.3.6,7.1-1.4,10.4h0c-1.1,1.1,0,2.8-1.2,3.9-.1.4-.2.8-.1,1.2-1.5,2,.3,4.7-1.3,6.6h0c-1.6,2.4.4,5.4-1.3,7.8h0c-1.7,2.4.5,5.4-1.4,7.8h0c-1.1,1,0,2.9-1.3,3.9h0c-1.1,1,0,2.9-1.3,3.9h0c-1.4,1.5.2,3.7-1.3,5.2h0c-1.1,1.1,0,2.8-1.2,3.9-.1.4-.1.7,0,1.1-1,1.2,0,3-1.3,4.1h0c-.7.7-.5,1.9-1.3,2.6h0c-1.2,1-.1,2.9-1.3,3.9h0c-1.2,1-.1,2.9-1.3,3.9h0c-1.2,1-.1,2.9-1.3,3.9h0c-1.2,1,0,2.9-1.4,3.9h0c-1.1,1,0,2.9-1.4,3.9h0c-.7.7-.5,1.9-1.3,2.6h0c-1.2,1,0,2.9-1.4,3.9h0c-.7.7-.5,1.9-1.3,2.6h0c-.7.7-.5,1.9-1.3,2.6h0c-1.2,1,0,2.9-1.4,3.9h0c-.7.7-.4,1.9-1.3,2.6h0c-.7.7-.4,1.9-1.4,2.6h0c-.7.7-.4,2-1.3,2.6h0c-.8,1.3-1.6,2.6-2.4,3.9-.2.3-.2.7-.1,1.1-.3.6-.7,1-1.1,1.5-.2.3-.3.7-.3,1-.6,1.5-1.5,2.9-2.6,4.2h0c-.7.7-.5,1.9-1.3,2.6h0c-.7.7-.5,1.9-1.4,2.6h0c-.8,1.3-1.6,2.7-2.5,3.9h0c-.8.7-.5,1.9-1.4,2.6h0c-.3.5-.8.9-1.3,1.3h0c-.4.4-.8.9-1.2,1.3h0c-.9.7-.6,1.9-1.4,2.6h0c-.8.7-.5,1.9-1.4,2.6h0c-.4.5-.8.9-1.3,1.3h0c-.9,1.2-1.5,2.7-2.7,3.9h0c-.3.5-.8.9-1.3,1.3h0c-.8.7-.5,1.9-1.4,2.6h0c-.3.5-.8.9-1.3,1.3h0c-.4.4-.9.9-1.3,1.3h0c-1.4,2.4-3.7,4.1-5.2,6.5h0c-.4.4-.9.9-1.3,1.3h0c-.4.4-.9.9-1.3,1.3h0c-.4.4-.9.9-1.3,1.3h0c-.4.4-.9.9-1.3,1.3-.8.7-.5,1.9-1.4,2.6h0c-.3.5-.8.9-1.4,1.3h0c-.3.5-.8,1-1.4,1.3h0c-.3.5-.8,1-1.4,1.3h0c-.3.5-.8,1-1.4,1.3h0c-.3.5-.8,1-1.4,1.3h0c-.4.5-.8,1-1.4,1.3h0c-.6.8-1.9.6-2.5,1.4h0c-.5.4-.9.9-1.3,1.3h0c-.4.4-.9.9-1.3,1.3h0c-.4.4-.9.9-1.4,1.3h0c-2.3,1.5-4.1,3.8-6.5,5.2h0c-.4.5-.9.9-1.3,1.3h0c-.4.5-.8.9-1.4,1.3h0c-.7.8-1.9.6-2.7,1.3h0c-1.1,1.1-2.6,1.7-3.9,2.6h0c-.7.8-1.9.6-2.6,1.3h0c-.5.4-.9.9-1.4,1.3h0c-.6.8-1.9.6-2.6,1.3h0c-.7.8-1.9.5-2.6,1.3-.7.8-1.9.5-2.6,1.3h0c-.5.4-.9.9-1.4,1.2h0c-.6.8-1.9.6-2.6,1.3h0c-1,1.3-2.9.1-3.9,1.4h0c-.7.7-1.9.6-2.7,1.2h0c-1,1.3-2.9.1-3.9,1.3h0c-1.1,1.2-2.9.1-3.9,1.3h0c-1.1,1.2-2.9.2-4.1,1.3h-.6s-.6.1-.6.1c-1.1,1.1-2.9,0-3.9,1.2h0c-4.1,2-8.8,1.5-13.1,2.6h0c-6.5,1.5-13.2.3-19.8.7-2.5.2-5.1-.6-7.6.6h0c-2.7,1.4-5.5.6-8.3.6-327.9,0-655.9,0-983.8.1-6,0-11.6-.8-17-3.3h0c-1.5-1.5-3.8.2-5.2-1.4h0c-1.1-1-2.9,0-4-1.3h0c-1.1-1.1-2.9,0-4-1.3h0c-.9-.8-1.9-.1-2.9-.2-.5,0-1-.1-1.5-.3-.9-.3-1.9-.6-2.8-.9-.5-.1-.9-.3-1.4-.5-.9-.3-1.9-.6-2.8-.9-.5-.1-1-.3-1.4-.4-1-.3-2-.5-2.9-.7-.5-.1-1-.3-1.5-.5-.7-.3-1.4-.6-2.1-.9-.5-.2-.9-.4-1.4-.6-.7-.2-1.4-.5-2.1-.7-.5-.1-.9-.3-1.4-.5-.9-.3-1.8-.6-2.8-.9-.5-.1-.9-.3-1.4-.5-.6-.4-1.4-.5-2.1-.7-.5-.1-.9-.3-1.4-.5-.7-.3-1.3-.6-1.9-.9-.4-.2-.9-.4-1.3-.5-.6-.2-1.3-.5-1.9-.7-.4-.1-.8-.3-1.3-.5-.6-.3-1.2-.6-1.8-.9-.4-.2-.8-.4-1.1-.6-.6-.3-1.1-.6-1.7-.8-.4-.2-.8-.3-1.1-.6-.6-.3-1.1-.5-1.7-.8-.4-.1-.8-.3-1.2-.5-.6-.2-1.2-.4-1.9-.6-.4-.1-.9-.3-1.3-.4-.6-.3-1.2-.6-1.8-.9-.4-.2-.8-.5-1.1-.7-.4-.3-.7-.5-1.1-.8-.2-.1-.4-.3-.6-.4-.6-.4-1.2-.7-1.9-1-.5-.2-.9-.4-1.3-.6-.9-.4-1.8-.9-2.6-1.3-.4-.2-.9-.4-1.3-.7-.6-.3-1.2-.7-1.8-1-.4-.2-.8-.4-1.2-.6-.6-.3-1.2-.6-1.8-.9-.4-.2-.8-.4-1.2-.6-.4-.2-.8-.4-1.2-.6-.4-.2-.8-.4-1.2-.6-.6-.3-1.2-.6-1.8-.9-.4-.2-.8-.5-1.2-.7-.4-.2-.8-.5-1.2-.8-.2-.1-.4-.3-.6-.4-1.1-.6-2.2-1.1-3.3-1.6-.4-.2-.9-.5-1.3-.8-.8-.6-1.6-1.1-2.4-1.6-.4-.2-.8-.5-1.2-.7-.6-.3-1.2-.7-1.9-1-.4-.2-.8-.5-1.2-.7-.7-.5-1.5-1.1-2.3-1.5-.4-.2-.8-.5-1.1-.8-.4-.3-.7-.6-1.1-.8-.2-.1-.4-.3-.5-.4-.6-.4-1.2-.7-1.8-1.1-.4-.2-.8-.5-1.2-.8-.4-.3-.8-.6-1.3-.9-.2-.2-.4-.3-.7-.5-1.5-1.2-3.2-2.2-4.8-3.3-.4-.3-.9-.5-1.3-.8-.6-.4-1.2-.8-1.8-1.1-.4-.2-.8-.5-1.2-.7-.4-.3-.7-.5-1.1-.8-.2-.1-.3-.3-.5-.4-.6-.4-1.1-.7-1.7-1-.4-.2-.8-.5-1.2-.8-.4-.3-.7-.6-1.1-.9-.2-.1-.4-.3-.6-.4-.8-.6-1.6-1.1-2.4-1.6-.4-.3-.8-.6-1.2-.9-1.1-1-2.3-2-3.6-2.7-.4-.3-.9-.5-1.3-.8-.8-.6-1.6-1.2-2.5-1.7-.4-.3-.8-.5-1.2-.9-.4-.3-.8-.6-1.1-.9-.2-.2-.4-.3-.5-.5-.7-.6-1.4-1.2-2.2-1.7-.4-.2-.8-.5-1.1-.8-.4-.3-.7-.6-1-.9-.2-.2-.3-.3-.5-.5-.3-.3-.7-.6-1-.9-.2-.1-.4-.3-.5-.4-.4-.2-.8-.5-1.1-.7-.4-.2-.7-.5-1.1-.7-.4-.2-.7-.5-1-.8,0,0-.5-.4-.5-.4-.6-.3-1.1-.7-1.7-1-.4-.2-.8-.5-1.1-.7-.4-.3-.7-.6-1.1-.9-.2-.1-.4-.3-.5-.4-.8-.6-1.6-1.1-2.4-1.6-.4-.3-.9-.6-1.3-.9-.4-.3-.8-.7-1.2-1-.2-.2-.4-.4-.6-.5-1.4-1.3-2.7-2.7-4.3-3.7-.5-.3-.9-.6-1.4-1-.4-.3-.9-.7-1.3-1.1-.2-.2-.4-.4-.6-.6-1.3-1.3-2.6-2.6-4.2-3.7-.4-.3-.8-.6-1.2-.9-.4-.3-.8-.6-1.1-1-.2-.2-.3-.3-.5-.5-.3-.3-.7-.7-1-1-.2-.2-.3-.3-.5-.5-.3-.3-.6-.6-.9-.9-.2-.1-.3-.3-.5-.5-.3-.3-.6-.6-.9-.9,0,0-.4-.5-.4-.5-.3-.3-.6-.6-.9-.9,0,0-.4-.5-.4-.4-.3-.3-.6-.6-.9-.9,0,0-.4-.5-.5-.5-.3-.3-.6-.6-.9-.9-.2-.2-.3-.3-.5-.5-.4-.3-.7-.6-1-1-.2-.2-.3-.3-.5-.5-.4-.4-.7-.7-1-1.1-.4-.4-.7-.8-1-1.3-1.5-2.1-3.5-3.9-5.3-5.8-.4-.4-.7-.8-1.1-1.2-.3-.4-.7-.7-1-1.1-.2-.2-.3-.4-.5-.5-.3-.3-.7-.7-1-1.1-.2-.2-.3-.4-.5-.5-.4-.3-.7-.7-1-1-.2-.2-.3-.4-.5-.5-.4-.4-.7-.7-1-1.1-.3-.4-.6-.8-.9-1.2-.9-1.3-1.9-2.4-3-3.6-.4-.4-.7-.7-1.1-1.1-.4-.4-.7-.8-1.1-1.2-.2-.2-.4-.4-.5-.6-.4-.4-.7-.8-1-1.2-.3-.4-.6-.8-.9-1.3-.6-.9-1.2-1.7-1.9-2.4-.3-.3-.7-.7-1-1.1-.3-.3-.6-.7-.9-1.1-.2-.2-.3-.4-.5-.5-.3-.3-.6-.7-.9-1-.3-.3-.5-.7-.7-1.1-.2-.3-.4-.7-.6-1.1-.2-.3-.4-.7-.7-1-.3-.3-.5-.6-.8-.9,0,0-.4-.5-.4-.4-.3-.3-.6-.6-.9-.9,0,0-.4-.5-.4-.5-.3-.3-.6-.6-.9-1-.3-.4-.5-.7-.7-1.1-.2-.4-.4-.8-.6-1.1-.2-.4-.4-.7-.6-1.1-.2-.4-.4-.7-.6-1.1-.2-.3-.4-.7-.7-1-.3-.3-.5-.6-.7-1-.3-.3-.5-.7-.6-1-.2-.3-.4-.7-.6-1-.2-.3-.4-.6-.7-1-.3-.3-.5-.6-.7-.9-.3-.3-.5-.6-.6-1-.2-.3-.4-.7-.6-1-.2-.3-.5-.7-.7-1-.3-.3-.5-.6-.7-1-.3-.3-.5-.7-.7-1.1-.3-.6-.6-1.1-1-1.7-.3-.4-.5-.7-.7-1.1-.4-.5-.7-1.1-1.1-1.7-.3-.4-.5-.7-.7-1.1-.3-.6-.6-1.2-.9-1.7-.3-.4-.5-.7-.7-1.1-.3-.3-.6-.7-.8-1.1-.3-.4-.5-.8-.8-1.2-.4-.6-.9-1.1-1.5-1.6-.5-.3-.9-.6-1.4-.9-7.2-2.1-14.7-1.2-21.9-3-1.3-3.2.8-5.4,2.5-7.6,19-23.5,25.4-50.8,25.7-80.4.2-23.6-4.1-45.9-15-66.9-2.7-5.2-6.4-9.8-9.7-14.5-1.2-1.7-3.2-3.2-1.7-5.7,4.6-1.1,9.4.6,14-1h0c2.7-2,7,1.1,9.2-2.6h0c.7-.7.5-1.9,1.3-2.6h0c.4-.5.8-.9,1.3-1.3h0c.8-.7.5-1.9,1.4-2.6h0c.3-.5.8-.9,1.3-1.3h0c.9-2.4,2.3-4.5,4-6.5h0c.9-1.3,1.6-2.7,2.6-3.9h0c.7-.7.5-1.9,1.4-2.6h0c.3-.5.8-.9,1.3-1.3h0c.7-.7.5-1.9,1.4-2.6h0c.3-.5.8-.9,1.3-1.3h0c1-1.2,1.6-2.7,2.7-3.9h0c.3-.5.8-.9,1.3-1.3h0c.4-.5.8-.9,1.2-1.3h0c.8-.7.5-2,1.4-2.5h0c.4-.5.8-.9,1.3-1.3h0c.4-.5.8-.9,1.3-1.3h0c.4-.4.9-.9,1.3-1.3h0c.8-.7.5-2,1.4-2.6h0c.3-.5.8-.9,1.3-1.3h0c.4-.5.8-.9,1.3-1.3h0c.4-.4.8-.9,1.2-1.3h0c.5-.4.9-.8,1.3-1.3h0c.5-.4.9-.8,1.3-1.3h0c.9-.7.6-2,1.5-2.5h0c.4-.5.8-.9,1.3-1.3h0c.4-.5.8-.9,1.4-1.3h0c.4-.5.8-.9,1.4-1.3h0c.4-.5.8-.9,1.4-1.3h0c3.2-5,8.3-8.2,11.8-13h0c.4-.5.8-.9,1.3-1.3h0c.4-.5.8-.9,1.4-1.3h0c1.6-1,2.9-2.3,4-3.9h0c2.3-1.5,4.1-3.8,6.6-5.2h0c.4-.5.8-.9,1.4-1.3h0c.4-.5.8-.9,1.4-1.3h0c1.8-1.2,3.3-2.8,5.2-3.9h0c.4-.5.8-1,1.4-1.3h0c.6-.8,1.9-.5,2.5-1.4h0c.5-.4.9-.9,1.3-1.3h0c.4-.4.9-.9,1.4-1.3h0c1.2-1,2.6-1.7,4-2.6h0c.4-.5.8-1,1.4-1.3h0c.6-.8,1.9-.6,2.5-1.4h0c.5-.4.9-.9,1.4-1.3h0c1.2-1,2.7-1.6,3.9-2.6h0c.5-.4.9-.9,1.4-1.2h0c1.8-1.2,3.3-2.8,5.3-3.9h0c1.2-1.1,2.6-1.7,3.9-2.6h0c.4-.5.8-.9,1.4-1.3h0c1.1-1.1,2.6-1.7,3.9-2.6h0c1.2-1,2.6-1.7,4-2.6h0c.6-.8,1.9-.5,2.5-1.4h0c.5-.4.9-.9,1.4-1.3h0c.7-.8,1.9-.5,2.5-1.3h0c.5-.4.9-.9,1.4-1.2h0c.6-.8,1.9-.5,2.5-1.4h0c.5-.4.9-.9,1.4-1.3h0c.4-.4.8-.9,1.4-1.3h0c.6-.8,1.9-.6,2.6-1.3h0c1.2-1,2.7-1.7,3.9-2.6h0c.6-.8,1.9-.5,2.6-1.4h0c.5-.4.9-.9,1.4-1.3h0c.4-.5.8-.9,1.4-1.3h0c.7-.8,1.9-.6,2.7-1.3h0c.6-.9,1.9-.6,2.6-1.3h0c.7-.8,1.9-.5,2.6-1.3h0c.5-.4.9-.9,1.4-1.2h0c.7-.8,1.9-.6,2.7-1.3h0c.6-.9,1.9-.6,2.6-1.3h0c.7-.8,1.9-.6,2.6-1.3h0c.7-.8,1.9-.6,2.7-1.3h0c.7-.8,1.9-.6,2.6-1.3h0c.5-.4.9-.9,1.4-1.3h0c1-1.3,2.9-.1,3.9-1.3h0c.7-.8,1.9-.6,2.7-1.3h0c.7-.8,1.9-.6,2.6-1.3h0c.7-.8,1.9-.6,2.7-1.3h0c.7-.8,1.9-.6,2.7-1.3h0c.7-.9,1.9-.6,2.7-1.3h0c.7-.9,1.9-.6,2.7-1.3h0c1-1.3,2.9-.2,4-1.3h0c1-1.3,2.9-.2,3.9-1.3h0c.7-.8,1.9-.6,2.7-1.3h0c1.1-1.3,2.9-.3,4.1-1.3Z"/>
        <path class="cls-15" d="M1194.8,466.5c-7.7,8.8-15.4,17.6-23.2,26.3-9.5,10.5-15.5,22.8-20,36.1-6.4,18.9-11,38.3-16.9,57.4-1,3.3-2,6.7-3,10-5,16.4-9.6,32.7-10.5,50.1-.9,18-5.6,35.5-7.9,53.4-2.1,16.1-4.1,32.2-4.9,48.5-1.4,27.3-3.2,54.5-4.3,81.8-.4,9.7-.6,19.5-.7,29.2-.2,16.9-.9,33.8,0,50.7.6,9.5.9,19,1.6,28.5.2,2.3.9,4.7,1.6,6.9,6.1,18.8,12.7,37.4,20.8,55.4.8,1.8,1.4,3.6,2.1,5.4,1.6,1.4,3.3,2.7,4.3,4.7,4,8.2,8.5,16.1,13.7,23.6,1.1,1.6,2.3,3.5,1.2,5.4-1.1,2-3.4,1.7-5.3,1.4-26.6-4.4-53.5-4.3-80.4-4.4-1.7,0-3.5-.4-5.2,0-17,3.7-34.4,2.4-51.6,4-6,.6-12,1.8-18.1,1.4-6.9-.5-8.7-2.9-5.2-8.5,5.1-8.1,8.2-17.2,13.3-25.3.7-1.1,1-2.4,1.3-3.7.2-.6.4-1.2.7-1.7,1.5-2.9,2.4-6,3.3-9.1.2-.6.4-1.1.6-1.7,1.8-5.1,3.7-10.1,4.7-15.5.1-.6.3-1.2.6-1.8,9.4-33.8,22.1-66.7,30.4-100.8.2-.7.4-1.4.7-2,4.1-12.1,6.4-24.5,7-37.2.3-6.4,1.6-12.8,1.3-19.3,0-.7.1-1.4.3-2.1,2.8-11.6,2.5-23.2.4-34.8-.2-.7-.4-1.4-.5-2-1.7-24-9-46.7-17.2-69.2-.3-.6-.6-1.2-.8-1.8-4.9-14.4-9.6-28.8-18.5-41.4-.4-.5-.7-1-1-1.5-2.5-5.1-5.8-9.8-9.3-14.2-.4-.4-.7-.9-1.1-1.4-2.3-3.6-4.9-7-7.8-10.2-.4-.4-.7-.9-1-1.3-.8-1.4-1.7-2.7-2.8-3.8-.4-.4-.7-.8-1.1-1.2-.4-.4-.7-.8-1.1-1.3-.4-.4-.7-.9-1-1.4-2.4-3.3-5.5-5.9-8.2-9-13.8-10.2-25.9-22.4-39.5-32.8-4-3.1-7.8-4.6-13.1-4-10.1,1.1-20.3,1.7-30.4,3.3-1.1.2-2.1.4-3.2.3-2.7,0-4.7-1-5.1-4-.3-2.7,1.7-3.9,3.9-4.5,6.3-1.6,12.9-1.4,19.3-2.3,2.8-.4,5.6,0,8.9-1.4-9.3-6.5-18.3-12.6-28-17.8-4.4-2.4-8-.4-11.5,1.9-8.7,5.7-17.5,11.2-27.4,14.9-3.8,1.4-8.8,4.2-10.9-.7-2.1-5,3.8-6,7.1-7.3,8.9-3.6,17-8.6,25.2-13.6,3-1.9,3.9-3.4-.2-5.1-7.5-3-15.1-5.5-22.7-7.9-3.3-1-6.4-.1-9.5,1.1-12.9,5.1-25.6,10.7-37.2,18.5-2.9,1.9-6.7,5.6-9.6,1.4-3.1-4.6,2.2-6.6,5.1-8.8,9.8-7.2,20.7-12.3,33-17-19.2-2.6-37.2-1.3-55,3.1-.4.1-.8.3-1.2.4-3.1.7-7,2.8-8.7-1.1-1.8-4.3,2.4-5.9,5.5-7.2,13-5.4,25.9-11.3,40.1-12.7,2.4-.2,4.7-.7,7.1-.5-4.4-1.5-8.8-3.2-13.1-5.2-2.6-1.2-5.5-2.9-4-6.3,1.4-3.3,4.7-2.7,7.4-1.8,8,2.8,15.9,5.8,23.4,9.8,9.1,4.7,18.8,6.5,28.6,8,8.1,1.3,15.9,3.7,25.2,6.9-4.6-5.6-7.8-10.1-11.7-14.1-1.1-1.1-2.2-2.1-3.1-3.3-1.9-2.5-3.8-5.5-.7-8,2.9-2.3,5.2.2,7.2,2.3,6.2,6.9,12.7,13.7,18,21.3,2.7,3.9,6.3,6.3,10.9,7.7,13.1,4,25.9,8.8,37.8,15.7.5.4.9,1.1,1.4,1.1.7,0,.7-.3.2-.2-.4.1-.7,0-1-.5-5.9-5-9.2-12-14.1-17.8-3.6-4.3-7.1-8.7-11.8-12-.9-.6-1.7-1.4-2.4-2.2-1.8-2.2-3-4.6-.7-6.9,2.2-2.2,4.6-.8,6.4.7,6.2,5.4,12.1,11.1,17.3,17.6,5.4,6.8,10.2,14,15.2,21.1,3.3,4.7,7.5,8.3,12.5,11.2,12.4,7.1,24.2,15.2,35.1,24.4,12,8.3,21.6,19.2,31.7,29.6,6.4,6.7,12.6,13.6,19.2,20.2,2.9,2.9,3.3.4,4.2-1.7,4.3-9.5,5.5-19.8,7.6-29.9,2.6-12.5,4.2-25.3,7.5-37.6,5.5-20.6,5-41.5,3.7-62.2-1.2-20-8.7-38.6-17.3-56.8-8.5-17.8-16.9-35.6-25.3-53.5-9-15.1-17-30.7-27.4-45-3.5-4.8-7.2-7.6-13.3-7.7-4.5-.1-9-.9-13.6-1.2-2.7-.2-5.5-1.1-5.5-4.4,0-3.3,3-3.9,5.7-4.2,3.9-.5,7.8.1,12.4,0-1.8-4.6-5.1-7.7-7.9-11q-13.4-15.7-33.8-12.1c-6.4,1.1-12.7,3.1-19.1,3.8-3.1.3-7.3,1.8-8.2-2.6-.9-4.5,3.4-5.6,6.7-6.3,8.9-2,17.9-3.4,26.9-4.5,1.8-.2,4.4.3,5-2,.6-1.9-1.5-2.9-2.7-4.1-7.5-7.8-15.6-15-22.4-23.5-2.3-2.9-5.4-4.1-9.1-4.2-16.7-.4-33.4.3-50,1.9-1.5.1-3,.5-4.5.4-2.7-.2-5.6-.7-5.8-4-.3-3.3,2.6-4.2,5.3-4.6,13.1-2.1,26.4-1.5,39.5-2.8,3.2-.3,6.5.4,10.7-.6-7.2-7.6-13.4-14.9-22.8-19-20.2-8.7-41.1-15.1-61.7-22.5-2.4-.9-5-1.5-7.3-2.8-1.8-1-3.3-2.4-2.7-4.7.7-2.5,2.7-3.2,5.1-3.2,1.5,0,3,.6,4.4,1,19.8,6.5,39.4,13.3,58.8,20.9,2.4.9,4.9,2.4,7.5,1.7,9.5-2.5,16.3,2.2,23,7.8,1,.8,1.8,1.7,3.5,3-2.8-8.9-4.7-17-6.4-25.2-.9-4.3-1.3-8.6-.6-12.9.4-2.5,1.4-4.8,4.4-4.7,2.6.1,3.5,2.3,3.9,4.5.5,3,.4,6,.8,9.1,1.6,13.7,7.1,26.3,11.4,39.3,1.4,4.2,5,6.4,8.1,9.1,10.9,9.9,22.1,19.4,33.8,29.4,1.2-4.1-.1-7.4-.3-10.7-.6-12.2,1.1-24.2,1.5-36.4,0-2.9.6-6,4.5-5.8,3.9.2,4,3.4,4.2,6.2.3,5.2-1.3,10.3-1.2,15.5.2,6.9.2,13.9,0,20.8-.4,12.9,3.1,23.7,14.5,31.3,7.4,4.9,12.9,12.2,20.6,17.7-2.4-8.8-4.4-17.4-6.3-26.1-.8-3.6-1.3-7.3-1.6-10.9-.2-3.1-.8-6.7,3.4-7.2,4.3-.6,4.4,3.4,5,6.2,1.6,7,3,14,4.5,21,1.6,7.9,4.2,15.5,6,23.3,1,4.2,3.4,7.4,6.4,10.3,8,7.9,16.1,15.8,22.9,24.8,1.6,1.5,3.3,2.9,4.7,4.6.4.4.8.9,1.1,1.4,1.4,2.6,3.6,4.4,5.5,6.6.4.4.7.9,1,1.4,1.1,2,2.7,3.5,4.2,5.2.4.4.7.9,1,1.3.8,1.5,2,2.8,3.1,4,.4.4.7.9,1,1.4,3.3,4.8,6.8,9.4,10.4,13.9.4.4.7.9,1,1.4.8,1.5,1.9,2.8,3,4,.4.4.7.9,1,1.3.6.9,1.2,1.8,1.8,2.7.3.4.6.9.9,1.3.8,1.4,1.8,2.6,2.9,3.8.4.4.7.8,1,1.3.8,1.4,1.8,2.6,2.8,3.8.3.4.6.8.9,1.2.5.9,1.1,1.7,1.7,2.5.4.4.7.8,1,1.2.4.4.7.8,1,1.2.4.4.7.9,1,1.4,1.5,2.4,3.1,4.7,5,6.9.4.4.7.9,1,1.4,1.2,2,2.4,3.9,3.7,5.7.4.4.7.8,1,1.3.4.4.7.8,1,1.3.3.4.6.9.9,1.3.8,1.4,1.9,2.6,3,3.8.4.4.7.9,1.1,1.3,1.9,2.9,3.5,1.4,4.8-.5,3.1-4.5,7.2-8.3,10.4-12.7.3-.5.7-1,1.1-1.4,3.2-3.4,6.6-6.7,10-10,.4-.4.8-.8,1.3-1.2.4-.4.9-.7,1.4-1.1.2-.2.5-.3.7-.5.5-.4.9-.7,1.4-1,.4-.4.9-.8,1.4-1.2.2-.2.4-.5.6-.7,12.9-12.7,27.4-23.4,42.1-33.7,4.2-2.9,7.7-6.2,10.5-10.5,13-19.5,23.9-40.3,34.9-60.9,1-1.9,1.8-4,3.2-5.6,1.7-2,3.5-4.3,6.5-2.5,2.6,1.6,1.9,4.1,1,6.4-.4,1-.8,2-1.4,2.9-10.1,18.2-19.2,37-30.5,54.7,19.7-9.8,38.8-20.3,58.9-28.7,3.8-1.6,6.5-4,8.4-7.6,9.9-18.6,19.7-37.2,28.2-56.4,1.3-3,2.6-6,4.8-8.5,1.6-1.9,3.6-3.6,6.2-2.3,2.8,1.4,1.9,4,1.1,6.3-.7,2.1-1.8,3.9-2.8,5.9-7.8,15.5-15.5,31.1-23.3,46.6-1.1,2.1-2.4,4.1-2.8,7,3.6.5,6.6-.9,9.4-2.2,19.4-9.4,40.6-12.2,61.4-16.6,5.9-1.2,11.1-3.3,15.7-7.2,10-8.4,20.5-16.1,29.1-25.9,2-2.3,4.7-4.1,7.4-2.1,3.4,2.6.9,5.5-.8,7.9-5.8,8.7-14.9,13.8-22.8,21,20-5.2,39.8-9.5,59.4-14.5,3.6-.9,7.2-1.9,10.9-2.1,2.1-.1,4,.5,4.4,2.9.4,2.2-.5,3.8-2.5,4.7-2.6,1.2-5.4,1.7-8.1,2.4-18.5,4.7-37,9-54.5,17.5,9.5.8,18.3,3.9,27.4,5.7,2.9.6,5.7,2,4.9,5.6-.8,3.3-3.9,2.9-6.5,2.6-6.9-.7-13.6-2.5-20.4-4-14.1-3-27.6-2.6-41.1,3.9-19.4,9.2-39.9,15.9-58.3,27.3,15.1-2.8,30.6-2.4,45.9-2.6,15.1-.2,30.3.2,45.4,1.4,3,.2,6,.9,8.8,2.2,2.2,1,3.5,2.6,3,5.1-.6,2.8-2.8,3-5,2.9-5.8-.3-11.6-1.8-17.5-1.8-20,0-39.9-.3-59.9.1-11.2.2-22.5,1.6-33.7,2.9-4.2.5-7.8,2.5-11.3,4.8-12.9,8.4-25.3,17.5-37.5,26,24.8,2.3,50.7-.6,75,9.3,3.4,1.4,9.1,2.1,7.3,7.2-1.8,5.1-6.8,2.1-10.2,1-14.8-4.9-29.8-7.3-45.4-7-11.3.2-22.6.1-33.8,0-4.6,0-8.4,1.2-12,4-16.5,13.1-32.5,26.7-47.9,41.1-2.6,2.4-5.6,3.6-8.4,5.6Z"/>
        <path class="cls-22" d="M1194.8,466.5c8.5-8.9,17.9-16.8,27.1-24.9,8.3-7.3,17-14,25.3-21.2,5.1-4.4,10.3-7,17.4-6.6,11.5.6,23,.3,34.5.1,15.1-.2,29.7,2.2,43.9,7.2,1.8.7,3.7,1.3,5.6,1.7,1.3.3,2.7.2,3.1-1.4.4-1.5-.5-2.6-1.7-3.1-3.4-1.4-6.8-3-10.3-3.9-11.7-2.8-23.5-6.3-35.7-5.6-12.6.6-25-2.1-38.3-1.2,4.1-5.5,9.7-8,14.4-11.5,9.2-6.8,18.9-13,28.3-19.5,3.1-2.2,6.5-3.5,10.1-4,6-.8,12-1,18-1.6,25.1-2.5,50.2-.8,75.3-1.3,6.1-.1,12,1.2,18,1.9,1.8.2,3.6,1.1,4.1-1.5.4-2.3-1.3-3-3.1-3.4-4.2-1.1-8.4-2.2-12.7-2.2-4.8,0-9.6-.2-14.3,0-8,.4-16.1-2-23.9-1-13.6,1.7-27.3-.3-40.8,2.1-4.3.8-8.9-.2-13.6.1,4.6-2.6,9.2-5.4,13.9-7.9,9.7-5.2,19.7-9.8,30-13.9,9.8-3.9,19.7-7.8,29.3-12.3,8-3.7,16.1-2.8,24.1-1.8,9.8,1.2,19.5,3.7,29.2,5.7.2,0,.4.1.6.1,1.6,0,3.8.9,4.5-1.3.7-2.5-1.2-3.4-3.4-3.7-9.2-1-17.9-5.1-27.3-5.5-1.4,0-2.8-.9-5.2-1.8,10.7-5.1,20.7-9.5,31.3-12.3,10.7-2.8,21.3-5.6,32-8.3.8-.2,1.7-.6,2.5-.7,2-.3,3.3-1.2,2.7-3.4-.6-2.1-2.1-1.6-3.7-1.2-7.3,1.8-14.7,3.4-22.1,5.2-16.6,4-33.1,8.1-49.7,12.2-.8.2-1.7,0-3.9,0,6.1-5.1,11.1-9.8,16.6-13.7,5-3.6,8.7-8.4,12.4-13.1.9-1.1,1.5-2.4.3-3.5-1.3-1.2-3-1-4.1.1-1.7,1.6-3,3.7-4.6,5.4-7.7,7.9-16.5,14.6-25,21.6-4.6,3.7-8.9,7.4-15,8.4-14.5,2.3-28.8,5.5-43.1,9-5.9,1.5-11.4,3.9-17,6.3-5.5,2.3-11,4.6-17.1,5.5-.7-2.9,1-4.6,1.9-6.4,8.8-17.7,17.6-35.3,26.4-53,.6-1.2,1.3-2.3,1.7-3.5.6-1.7,2.8-3.9.6-5.2-2.7-1.7-4.3,1.1-5.4,3.1-2.6,4.7-4.5,9.8-6.9,14.7-8.5,17.3-17,34.6-26.3,51.6-1.2,2.2-2.6,3.9-5,4.8-19.3,7.4-37.2,17.7-55.7,26.6-3.7,1.8-6.6,4.9-10.9,5.7-1-1.9.9-2.7,1.6-3.9,7.6-12.3,14.6-25,21.5-37.8,3.4-6.3,6.8-12.6,10.1-18.9.7-1.3,1.4-2.7,1.9-4.1.4-1.2-.1-2.1-1.2-2.7-.9-.5-1.7-.2-2.4.3-1.5,1-2.2,2.6-3,4.2-6.8,12.8-13.4,25.8-20.6,38.3-6.1,10.7-13,20.9-19.6,31.4-.9,1.5-2.4,2.5-3.8,3.4-13.8,9-26.4,19.5-39.3,29.7-3,2.4-5.1,5.9-8.7,7.7-5.4-3-6.1-8.7-7.4-13.8-5.4-22.3-6.5-44.5,3.1-66.2.5-1.2,1.1-2.3,2.1-3.2h0c5.8-11.8,13.8-22.2,23.5-31.2h-.1c.2-.7.7-1.1,1.5-1.4l-.2.2c.2-.7.7-1.2,1.5-1.4l-.2.2c.2-.8.7-1.3,1.5-1.4l-.2.2c2.6-2.3,4.5-5.3,7.9-6.6h-.1c3-3.2,6.7-5.6,10.5-7.9h-.1c2.9-3.1,6.9-4.6,10.6-6.5h-.2c.5-1.1,1.8-.8,2.7-1.4h-.1c5.7-3.8,11.9-6.8,18.4-9.1h-.1c7.1-3.8,14.6-6.6,22.2-9.2h-.1c19.4-8.4,39.7-13.8,60.4-17.9,9.5-1.9,19-3.4,28.6-4.3,1.1.5,2.2.5,3.4,0,21.6-2.9,43.3-4.2,65.1-3.1,11.8.6,23.6.8,35.3,3,.7.4,1.4.4,2.1,0,17.2,2.3,34.5,3.9,51.2,9.2h-.1c1.6,1.2,3.9-.5,5.3,1.3h-.1c11.1,2.2,21.9,5.6,32.7,9h-.1c8.9.9,17.5,3.4,26.4,4.6,3.2.4,6.2,2.1,6.9,5.9.7,3.6-1.7,5.6-4.1,7.5-1.4,1-2.9,1.8-4.5,2.5h.1c-3.7,3.4-7.6,6.4-11.9,9.1h.1c-4,3.9-8.3,7.5-13.2,10.4h.1c-3.5,3.5-7.6,6.5-11.8,9.1h.1c-6.9,6.2-14.7,11.5-22.3,16.9h.1c-9.3,8.9-18.5,18.1-27.5,27.4l.2-.2c-.2.8-.7,1.2-1.4,1.5h0c-1.2,2.6-3.5,4.3-5.4,6.4h.1c-1,2.7-3.5,4.4-5.3,6.5l.2-.2c-.2.8-.7,1.2-1.3,1.5h0c-3.2,4.5-6.5,9.1-10.6,12.9h.1c-5.6,8.1-11.8,15.9-18.3,23.5h0c-5.8,8.4-12.3,16.2-19.7,23.4l.2-.2c-.2.8-.7,1.2-1.4,1.5h0c-1,2.4-2.8,4.1-5.3,5.1h.1c-.2.6-.7,1.1-1.5,1.4l.2-.2c-.2.7-.7,1.2-1.5,1.4l.2-.2c-4.5,4.4-8.8,8.9-14.4,11.9h.1c-1.7,1.4-3.2,3.1-5.4,3.8h.1c-18.4,13.8-38.1,25.1-60,32.6h.1c-9.6,4.4-19.9,6.2-30.3,7.9-12.5.2-25,1.4-37.4-1.1-9.6-2-19-4.5-27.7-8.9-5.2-2.6-10.6-4.9-16.2-6.7-10-3.2-19.1-8.1-27.5-14.3-1.8-1.4-3.5-3.4-6.3-2.2Z"/>
        <path class="cls-22" d="M984.9,1005.1c.7,0,1.5,0,2.2.1,1,.5,2.1.4,3,1.1.3.3.6.4,1,.1,2.5,1.3,5.3,0,7.9.9-5.6,10.4-9.8,21.5-17.1,31.8,5.8,1.7,10.6,1.2,15.5.6,1.3-.1,2.6-.8,3.8-.7,9.8.7,19.5-1,29.1-1.7,7-.6,14.1.8,21-.8,1.7-.4,3.4-.4,4.8-1.6.9-.7,1.9-1.1,3-.9,14,2.2,28.1.4,42.2,1.1,8.6.4,17.2,1.4,25.8,2.2,6.9.7,13.6,1.6,21.8,3-3.9-6.1-7.5-11.3-10.5-16.7-3.2-5.7-5.9-11.6-8.8-17.4,5.6,1,11-.8,16.5-1.2,2.2-1.7,4.7-2.1,7.3-2,9.9,0,19.7-2.1,29.7-1.4,5.2.4,6.7-2.2,6.7-7-.1-10.1-.1-20.3,0-30.4,0-3.1-.6-6.6,2.7-8.8,3.5,1.7,2.7,5.1,2.8,8,.2,10.4.2,20.7,0,31.1-.1,5.5,2.2,8,7.4,8.3,11.5.6,22.5,4.1,33.6,6.7,7.4,4.3,15.6,4.5,23.8,3.9,6.4-.5,12.9-1,19.2-2.1,20.9-8,42.6-5.7,64.1-5.2,8.9.2,17.6-2.1,26.4-2.5,2.8-.1,5.7-.1,8.4-.7,13.8-2.8,27,2.5,40.5,3.1,1.7,0,3.4.4,5.2.3,8.5-.4,9.8-1.8,11.1-10,.8-4.9.9-9.9.9-14.9,0-3.5.3-7,3.2-9.5,12.3-4.3,23.3-11.1,34.2-18,7-4.4,14.5-2.5,21.8,0,4.1,7.1,4.2,15.3,5.4,23.1,3.1,20.2,4.9,40.7,5.5,61.1.3,9.4-1.2,18.9-2.6,28.3-.3,2-1.4,3.6-3,4.9-8.9.9-17.7,0-26.5-.6-2.6-.2-5.2-.7-7.4,1.3-1.5,1.3-3.3.8-5,.7-7.3-.3-14.7-.5-22-.5-7.1,0-14.3.7-21.4.4-20.1-.7-40.1,2.1-60.2,2.1-7.9,0-16,1.3-23.9.6-12.5-1.2-25.1.2-37.5-2-3.4-.6-7-.6-10.4,0-7.1,1.3-14.3.8-21.4.8-36.6.2-73.3-.5-109.9.6-39.2,1.1-78.4.2-117.6,1.4-9.2.3-18.6,0-27.8,1.4-2.1.3-4.3-.1-6.4-.3-10.6-.8-21.2.2-31.8,0-1.9,0-4,0-5.8-.4-4.1-1-5.6-3.6-4.2-7.8,3.3-9.8,4.9-19.9,3.6-30.1-1.4-10.3.5-20.8-2-31-.3-1.1.2-2.1,1.1-2.8,3.9-.4,7.8-.8,11.7.2.9,0,1.8,0,2.6,0,2.2-.9,4.3-1,6.5,0Z"/>
        <path class="cls-9" d="M350.1,976.6c1.9,0,3.8,0,5.7,0,.6.3.8.7.8,1.4,6.8,5.9,13.9,11.5,18.9,19.2,11.6,17.9,17.4,37.8,18.6,58.8,1.1,18.3.5,36.7-4.6,54.7-6.1,21.4-16,39.7-35.2,51.9-.5.3-.9.9-1.2,1.5-.3.6-.5,1.1-.8,1.7-.3.5-.7,1-1.2,1.3-1,.6-2.1.9-3.3.8-.3,0-.6,0-.8-.1-22.1-.2-44.2-.8-66.3.1-1.2,1-2.5,1.6-4.1,1.5-5.8-1.5-11.5-1.6-17.1.9-.7.2-1.5.3-2.2.3-4.3-1.3-8.8-.6-13.2-.8-1.8-.1-3.8,1-5.2-1,.7-3,3.3-2.7,5.2-2.6,18.2,1.3,28.8-9.8,37.7-23.2,11.5-17.4,15.9-37,18.1-57.6,2.1-19.5-.2-38.4-5.4-57.1-4.4-15.8-11.4-30.4-23.9-41.7-3.6-3.3-7.6-5.6-11.8-8-1.3-.7-5-1.1-1.7-4,7.8.3,15.7-.8,23.5.6,15,.5,30,.8,45,.1,4.9,1.6,10.1-.6,14.9,1.2.7.4,1.4.4,2.1,0,2.5.8,5,.7,7.5,0Z"/>
        <path class="cls-9" d="M1279.3,1013c-.8.4-1.5,1-2.3,1.1-9.2.2-18.4,2.1-27.7,1.5-5.1-.3-9.8-1.3-13.5-5.2-2.2-2.6-1.8-5.7-1.8-8.7,0-11.9,0-23.9,0-35.8,0-8.8-.5-9.3-9.1-9.4-6.1,0-12.1.1-18.2.9-4.7.6-9.5,1.3-13.9-1.6-1.4,2.2-.7,4.6-.8,7,0,12.1,0,24.3,0,36.4,0,3.2-1,4.9-4.5,4.6-13.9-.9-27.6,2-41.5,1.1-1.6-25.9-.4-51.9-.9-77.8-.1-5.1,1.7-8.4,5.4-11.7,9.9-9,19.4-18.5,29.1-27.8,8.1-7.8,16.3-15.4,24.5-23.1,1.4-1.4,3-2.5,5-2.8,20.9,21.3,44.8,39.2,66.7,59.3,1.3,1.2,2.4,2.5,3.3,4,3.4,8.2,3.1,16.5,2.6,25.3-1,17.5-.3,35.1-.3,52.7,0,3.4.5,7-2,10Z"/>
        <path class="cls-24" d="M1276.7,924.2c-13.9-12.1-27.7-24.2-41.6-36.2-7.2-6.2-14.4-12.5-21.8-18.4-2.7-2.1-2.7-5.2-4.1-7.8,1.1-3,3.6-2.6,6-2.6,8.9,0,17.7-.2,26.6-.2,8.4-3.3,17.2-2.1,25.7-1.3,12.5,1.2,25.1,1.7,37.6,1.8,27.3.2,54.5,2.4,81.8,1.6,7.4-.2,12.7,2.4,17.3,8.2,12.3,15.7,25,31.1,37.7,46.4,3.5,4.2,5.4,8.8,4.7,14.4-.4,2.8-.9,5.7-4.2,6.6-6.2-2.2-12.7-2.2-19.2-2.3-44.6-1.3-89.1-4.1-133.6-5.8-4.6-.2-9-1.1-12.7-4.2Z"/>
        <path class="cls-10" d="M1442.2,935.8c3.6-5.9,3.2-12.4-1.3-17.9-8.3-10.3-16.7-20.5-25.1-30.7-5.2-6.4-10.5-12.7-15.5-19.2-2.6-3.4-5.6-4.8-10-4.8-12.1.1-24.3.3-36.4-.4-17.5-1.1-35.1-.6-52.6-1.4-18-.8-35.9-1.7-53.9-1.8-1.9,0-3.9-.4-5.8-.7,14.3-16.6,30.9-30.2,50.6-39.9,8.6-4.2,17.6-7.1,26.9-9.2,1.5-.3,2.9-.9,4.3-1.3,10.8-2.8,21.6-2.4,32.5-1.2h0c2.2.9,4.4,1,6.6,0h0c.8-.7,1.8-.6,2.7-.4,23.9,8.6,45.2,21.6,63.8,39,29,27.1,48.5,60.5,63.5,96.8,1.5,3.6,3.8,7.5,1.5,11.7-2.3-.1-4.8,0-7-.5-5.7-1.5-10.5,0-15.2,3-5.4,3.5-10.8,7-16.3,10.3-4.5,2.6-9.4,4.1-14.5,5.2-2.1-1.7-2.6-4-2.3-6.4,1.1-8.1.9-16.3,1.1-24.5,0-2.1.3-4.3,2.3-5.8Z"/>
        <path class="cls-27" d="M255.8,975.3c18.8,7.8,29.3,23,36.4,41,5.4,13.7,8,28.1,9.4,42.9,2.3,23.6-1.4,46.2-9.7,68-5.2,13.7-13.1,25.8-25.4,34.6-5.5,3.9-11.3,6.2-18.1,6.1-3.2,0-6.5.2-9.7.3-1.1,1.1-2.5,1.1-4,.9-.6,0-1.1-.2-1.6-.4-1.1-.3-2.1-.7-3.2-1-.6-.2-1.1-.4-1.6-.7-7.1-3.5-12.5-9.1-18.1-14.5-.4-.4-.8-.9-1.1-1.4-.8-1.5-2-2.9-3.1-4.2-.4-.5-.7-.9-1-1.5-2.1-4.2-4.9-8-6.8-12.3-.3-.5-.5-1-.8-1.6-.4-.8-.8-1.6-1.1-2.4-.3-.5-.5-1.1-.7-1.7-1.9-6-4.9-11.8-4.7-18.4h0c-1.3-1.3-1.9-3-2.6-4.7-.2-.6-.3-1.2-.3-1.8.2-1.8,1.2-3.6.2-5.4.3-.7.2-1.4-.2-2.1-1.7-12.2-3.5-24.5-.8-36.8.4-1.8-.6-3.3-.8-5-.3-1.5,0-3,.5-4.4,2.6-1.9.9-4.4.9-6.7,0-.7.1-1.4.3-2,1.1-2,1.6-4.3,2.6-6.3l.3-.3-.3-.4c1.3-2.2-.5-4.9,1.4-7h0c1.2-1.5-.5-3.8,1.4-5.2h0c1.4-4,2.2-8.3,5.1-11.8h0c.6-.7.4-2,1.4-2.6h0c.6-.8.3-2.1,1.5-2.5h0c.5-1.5,1.2-2.9,2.6-3.9h0c.6-1.4,1.2-3,2.8-3.8h-.1c0-.7.6-1.1,1.2-1.5h0c1-1.9,2.4-3.7,4.1-5.1l-.2.2c0-.8.6-1.3,1.4-1.5h-.1c.2-.6.7-1.1,1.4-1.3h-.1c.2-.6.7-1,1.4-1.3h-.1c.3-.6.7-1.1,1.4-1.3h-.1c.2-.6.7-1.1,1.4-1.3h-.1c.2-.6.7-1.1,1.5-1.3h-.1c.2-.7.7-1.2,1.5-1.2h-.1c1.4-1.6,3.1-3,5.2-4h0c.6-1,1.8-.7,2.6-1.4h0c9.1-1.4,18.2-4.3,27.3,0Z"/>
        <path class="cls-1" d="M1365.2,807.3c3,0,5.9,0,8.9,0,.6,1,1.7,1,2.7,1.1,2.7,2.2,6.2,3.1,9.2,4.7,29,15.3,54.2,34.9,72.3,62.8,6,9.3,12,18.5,18,27.8,14.5,22.6,23.2,47.4,26.6,74,2.7,21.3,5.2,42.6,5,64,0,8.4-1.1,16.8-2.4,25.2-.4,2.7-1,5.4-4.8,4.2,1.4-6.7,2.5-13.5,2.7-20.4.2-6,1.7-12,.9-18-1.6-13-1.9-26.1-3.4-39.2-1.4-12.2-3.3-24.3-5.6-36.3-.2-1.1-.4-2.1-1.2-2.9-3.3-14.7-9.4-28.3-17-41.3-7.6-13.1-15.8-25.9-24.6-38.4-19.4-27.8-45.6-47.2-76-61.5-3.8-1.8-8.4-2.2-11.3-5.9Z"/>
        <path class="cls-4" d="M1497,816.8c3.2-1.8,5.7-.8,8.2.7,23,13.6,43.8,29.7,59.5,51.6,10.5,14.7,20.2,29.8,29.1,45.5,10.4,18.3,16.7,38.1,19.7,58.9,3.3,23,5.8,46,5.6,69.3,0,8.3-1.1,16.4-2.5,24.6-.1.9-.2,1.7-.5,2.5-.4,1.2-1.3,1.7-2.5,1.4-1-.3-1.2-1.2-1.1-2.1.5-4.1,1-8.2,1.7-12.2,1.9-11.6,1.5-23.4.7-35-1.1-15.3-2.5-30.6-4.8-45.8-3.3-21.7-9.7-42.2-20.6-61.3-8.7-15.1-18.1-29.6-28.2-43.8-15.5-21.6-36.2-37.2-58.7-50.6-1.8-1.1-3.9-1.6-5.4-3.7Z"/>
        <path class="cls-14" d="M826,1107.2c-.3,61.5-14.6,119.6-42.9,174.3-4.8,9.3-10.9,17.7-17.8,25.5-.9,1-1.9,1.8-2.9,2.6-.6.4-1.2.2-1.8-.1-.7-.4-.6-1.1-.3-1.7.3-.6.6-1.1,1.1-1.6,14.6-14.9,22.9-33.5,31-52.3,15.6-36.1,25-73.7,28.7-112.8,1.8-19.5,1-39,1-58.4,0-.6-.2-1.3-.1-1.9.3-1.7-1.2-4.7,1.3-4.8,2.5,0,1.6,3,1.7,4.7.9,8.8,1.1,17.7.9,26.6Z"/>
        <path class="cls-26" d="M356,977.5c1.2.2,2.4.4,3.6.6,2.2,1.7,4.4,3.4,6.6,5.2.7,0,1.1.5,1.5,1,0,0,0,0,0,0,23.6,26.7,29.8,58.9,28.8,93.2-.3,11.1-2.1,22-4.9,32.7-3.9,14.9-10.1,28.6-19.8,40.6-2,2.5-3.8,5.3-5.6,7.9-1.4,1.4-3.9.5-5.2,2.2,0,0,0,0,0,0-2.9,2.6-6,4.8-10.1,4.5,0-2.4,1.5-4,3.4-5.2,17.6-10.8,26.7-27.6,32.7-46.6,6.3-20,6.7-40.5,5.2-61-1.3-17.5-6.2-34.4-15.2-49.8-5.9-10-13.3-18.6-23.9-23.9.9-1.5,2.1-1,3-1.5Z"/>
        <path class="cls-19" d="M1234.8,1129.9c-.8,37.8-8,74.3-20.9,109.8-9.2,25.3-20.2,49.8-34.6,72.6-1,1.6-2.2,3.2-3.5,4.7-.5.6-1.7.2-2.3-.4-.5-.5-.6-1.1-.2-1.7.8-1.3,1.6-2.6,2.4-3.9,24.4-38.8,40.2-81,49.6-125.6,4.1-19.3,5.4-39,5.9-58.7,0-1.7-1.1-4.7,1.3-4.9,3.4-.3,2,3,2.3,4.9.2,1.1,0,2.2,0,3.2Z"/>
        <path class="cls-19" d="M1555,1318.7c9.7-12,18.6-24.5,25.8-38.2,8-15.3,12.3-31.9,16.6-48.4,5.7-21.6,10.6-43.3,12.4-65.7.6-8-.4-16,1-24,.1-.8,0-1.8.3-2.6.2-.5.7-1.2,1.2-1.3,1-.2,1.6.6,1.6,1.6,0,1.9.1,3.9.1,5.8.4,29.3-5.3,57.7-12.8,85.8-4.3,16.3-8.4,32.8-16,48-6.1,12.3-13.6,23.6-22,34.5-2.2,2.8-4.6,5.2-8.1,6.2-.6-.5-.7-1.1-.3-1.8Z"/>
        <path class="cls-3" d="M725,1044.1c.2,30.6-2,59.1-5.5,87.5-.2,1.8.3,5-2,4.7-3.2-.4-1.2-3.5-1-5.3,1.9-17.7,3.4-35.3,4.5-53.1,1.2-18.2,1.3-36.4.6-54.6-1.3-31.4-4.9-62.6-13.7-93-.5-1.7-1-3.3-1.3-5-.2-.8.2-1.7,1.2-2,1.1-.3,1.6.6,1.9,1.3.6,1.6,1.1,3.3,1.6,5,5.2,19.5,8.9,39.3,11,59.3,2,19,3,38,2.8,55.1Z"/>
        <path class="cls-16" d="M824.8,990c-.6,2.3,1.7,6.3-1.6,6.5-2.5.2-1.3-3.9-1.5-6.1-1.9-17.2-3.7-34.4-7.3-51.4-5.7-26.6-13-52.6-26.2-76.6-4.5-8.2-9.7-15.9-14.9-23.6-1.6-2.4-3.9-4-6.2-5.6-.9-.6-1.9-1.5-1.2-2.6.9-1.6,2.2-.6,3.3,0,3.3,1.8,5.6,4.6,7.8,7.7,18.6,25.9,30,55,37.4,85.8,5.2,21.7,8.6,43.7,10.4,66Z"/>
        <path class="cls-19" d="M958.4,1087.4c-1.2,21-1.8,41.9-3.1,62.9-1.9,29.5-8.4,57.8-18.3,85.5-.8,2.3-.5,7.1-4.4,5.6-2.5-1,.2-4.6,1-6.8,11.2-31.2,17.6-63.4,18.8-96.6.6-16.2,1.5-32.4,2.2-48.7,0-.6,0-1.3,0-1.9.2-1.4,0-3.4,2.2-3.1,1.6.2,1.6,1.8,1.5,3.1Z"/>
        <path class="cls-7" d="M1363.9,1103.5c-1.2,20.5-1.7,41.1-4,61.6-2.1,18.8-6.1,37.1-11.8,55.1-.3,1-.8,2-1.4,2.9-.6.9-1.5.7-2.3.4-.7-.3-.7-1-.6-1.6.6-2.3,1.2-4.6,1.9-6.9,6.8-21.4,10.3-43.3,11.9-65.6,1.3-19,2-38,2.7-57.1,0-2.2.3-4.3.6-6.5.1-.9.7-1.6,1.7-1.6,1.1,0,1.5.9,1.5,1.7,0,1.9-.2,3.9-.2,5.8,0,3.9,0,7.8,0,11.7Z"/>
        <path class="cls-13" d="M1027.4,1315.7c-.2-1.4.7-2.4,1.4-3.4,22.4-35,37-73.3,47.5-113.3.5-1.9,1-3.8,1.7-5.5.4-.9,1.5-1,2.3-.6.4.2.8,1,.8,1.5,0,.8-.2,1.7-.4,2.5-10.4,40.7-24.9,79.7-47.4,115.4-2.1,3.3-2.1,3.3-5.8,3.4Z"/>
        <path class="cls-8" d="M702.1,1208.1c.1-.6,0,.3-.3,1.1-1.2,3.7-2,7.6-3.5,11.1-10.1,23.4-19.7,47.1-34.1,68.5-5,7.4-9.2,15.2-15,21.9-1.9,2.1-3.1,5.4-6.8,5.3-1.7-4,2.4-4.9,4-7.1,9.2-12.3,17.8-25.1,24.9-38.7,10.4-19.7,20.3-39.7,27-61,.4-1.2.5-2.6,1.6-3.5.4-.4,1.2-.7,1.7-.6.6.1.9.8.5,2.9Z"/>
        <path class="cls-14" d="M1485,1217.5c-.4,1.1-.7,2.2-1,3.2-10,32-23,62.6-41.2,90.9-1,1.6-2.2,3.2-3.5,4.7-.7.8-2,1-2.9,0-.8-.8,0-1.6.3-2.3,3.2-5.2,6.4-10.3,9.5-15.5,14.3-24,24.7-49.6,33.3-76.1.7-2,1.4-4.1,2.3-6,.4-.8,1.5-.9,2.3-.5.4.2.6,1,.9,1.6Z"/>
        <path class="cls-18" d="M635.3,824.5c1.2.5,2.6,1.1,3.9,1.8,11.9,6.6,22.5,14.8,31,25.4,9.1,11.4,16.6,23.8,23.7,36.5.4.8.8,1.5,1.2,2.3.5.9.3,1.7-.5,2.2-.8.5-1.7.3-2.3-.5-.8-1.3-1.5-2.6-2.3-3.9-5.1-9.1-10.8-17.8-16.5-26.4-9.2-13.8-21.4-24.3-35.7-32.5-1.3-.7-2.6-1.5-3.8-2.4-.5-.4-.4-1.2,0-1.7.2-.3.7-.4,1.4-.7Z"/>
        <path class="cls-16" d="M1301.9,1314.8c0-2.1,1.3-3.3,2.1-4.7,12-19.1,21.9-39.2,29.9-60.4.6-1.6,1.2-3.2,2.1-4.7.4-.8,1.3-1.2,2.2-.9.9.3,1.2,1.2,1,2.1-.3,1-.7,2.1-1,3.1-8,21.8-18.2,42.5-30.5,62.2-1.3,2-2.2,5-5.7,3.4Z"/>
        <path class="cls-11" d="M1085.3,1127.1c.5-16.2.9-27,1.3-37.8,0-.9,0-1.7.1-2.6.2-1.3.6-2.7,2.3-2.4,1.3.2,1.5,1.4,1.5,2.5-.1,5.4.2,10.9-.5,16.2-1,7.3-.5,14.7-1,22.1-.7,8.8-1,17.7-1.5,26.6,0,1.1-.1,2.2-.3,3.2-.3,1.3-1,2.6-2.5,2.4-2-.3-1.1-1.8-1.1-3,.5-10.8,1.9-21.6,1.8-27Z"/>
        <path class="cls-17" d="M1494.4,1147.5c1.3-14.9,1.9-29.8,2.4-44.7.2-6.2.6-12.5.9-18.8,0-1.3.2-2.9,1.9-2.8,1.5.1,2,1.6,1.9,3-1.2,11.2-.4,22.5-1.5,33.6-.7,6.9-.3,13.8-1,20.7-.4,3.9-.7,7.7-1,11.6-.1,1.4-.5,2.6-2.3,2.4-1.4-.2-1.4-1.4-1.4-2.5,0-.9,0-1.7,0-2.6Z"/>
        <path class="cls-6" d="M900.3,1308.1c0-2.8,1.7-4.5,2.9-6.5,7.3-12.5,13.9-25.4,19.5-38.8.3-.8.7-1.6,1-2.4.7-1.5,1.4-3.8,3.5-2.8,2.3,1.1.4,3,0,4.3-6.1,14.8-13.2,29.1-21.5,42.9-1.2,2-2.2,4.3-5.4,3.3Z"/>
        <path class="cls-5" d="M1555,1318.7c0,.6.2,1.2.3,1.8-.5.9-1.4,1.2-1.8.3-.4-1,.5-1.7,1.5-2.1Z"/>
        <path class="cls-22" d="M774.2,193.6c-.3-.7-.9-1-1.6-1-.5-1.1-1.4-1.4-2.5-1.4,0,0,0,0,0,0-.8-.7-2.1-.4-2.6-1.5l.2.2c-.8-2.5,1.1-2.6,2.7-3.2,4.1-1.6,8.5-2.2,12.8-3.1,0,0,0,0,0,0,13.6-2.6,27.3-5,40.6-9.1.3.2.6.2.9-.1,9.7-1,19-4.3,28.6-5.9,4.5-.8,9-1.4,13.2-3.1,5.2-.4,10.4-.8,15.5-1.3,6.5-.6,12.9.9,19.4,1.2,0,0,0,0,0,0,12.9,1.9,25.6,4.6,37.8,9.1h0c7.5,2.2,15.2,4.1,22.2,8h-.1c.9.4,2.1.2,2.8,1.2h0c13.7,5.1,26.8,11.5,39.1,19.6h-.1c1.5.6,2.9,1.4,4.1,2.5h0c4.7,2.6,9.3,5.2,13,9.3h-.1c8.4,6.3,15.8,13.7,22.2,22.1h-.1c1.7,1.3,3.2,3,4.1,5.1h0c1.5,1.5,3.1,3.1,4,5.2h0c2.7,2.6,4.9,5.7,6.5,9.2h-.1c1.4.8,2.1,2.3,2.7,3.9h-.1c1.4.9,2.1,2.4,2.7,3.9h-.1c2.1,1.6,2.8,4.2,4.1,6.5h-.1c2.4,1.9,2.9,5,4.2,7.6h0c4,6.5,7.5,13.3,9.1,20.9,0,0,0,0,0,0,1.1,7.2,3.5,14.2,3.8,21.6.4,9.9-1.2,19.4-4,28.7,0,0,0,0,0,0-1.3,3.1-1.3,6.8-3.9,9.3h0c-1.5,2.6-2.7,5.5-4.9,7.8-7.4-9.4-15.8-17.8-24.4-26-3.7-3.5-5.6-7.5-6.9-12.2-4-14.8-7.4-29.7-10.4-44.8-.3-1.6.3-4-2.3-3.8-2.7.2-2.4,2.1-2.1,4.3,1.3,14.1,5.1,27.6,9,41.1.2.8.7,1.6-.2,3-2.8-1.5-4.6-4.1-6.9-6.2-2.4-2.2-5.2-3.8-7.5-6.2-6-6.2-12.7-11.8-19.4-17.1-2.5-2-3.5-4.4-4-7.2-.8-4.4-1.7-9-1.6-13.5.2-12.3-1.3-24.7,1.1-37,.4-2.1,0-4.3-.2-6.5-.1-1.3-1.1-1.8-2.3-1.8-1.2,0-2.1.5-2.4,1.7-.1.4-.2.9-.2,1.3,0,13.4-2.2,26.8-1.3,40.2.3,3.9,2.3,7.8.7,11.7-2,.6-2.7-.7-3.7-1.5-12.9-11.2-25.7-22.4-38.7-33.6-1.7-1.5-3-3.2-3.6-5.3-3-10.4-7.7-20.2-9.8-30.9-1.1-5.5-2.4-11-2.3-16.6,0-1.3,0-2.6-.4-3.9-.3-1.1-1-1.9-2.3-1.9-1.2,0-2.1.9-2.2,2-.4,4.3-.7,8.6.3,12.9,2.1,9.5,4.3,18.9,7.2,28.2.2.8.8,1.6-.2,2.8-4.1-3.4-8-7-12.3-10.1-4.7-3.5-9.7-5.9-15.6-2.6-1.7.9-2.9,0-4.3-.5-15.2-5.6-30.4-11.5-45.7-16.9-6.7-2.4-13.7-4-20.3-6.9-1.2-.5-2.5-.6-3.8,0-.8.4-1.4,1-1.6,1.9-.2,1,.3,1.8,1.1,2.2,1.1.6,2.4,1,3.6,1.4,13.5,4.6,27.1,9.1,40.5,14,9.3,3.4,18.5,7.4,27.7,11.1,4.9,2,9,5,12.6,8.9,3.9,4.2,8.1,8.2,12.1,12.2-1.4,1.8-2.8,1.4-4,1.3-13.7-.8-27.2,1.9-40.9,1.4-3.6-.1-7.2,1.5-10.9,1.4-1.3,0-2.6.7-2.8,2.2-.2,2,1.3,2.5,2.9,2.7.9.1,1.8.3,2.6,0,7.3-2.5,15-.5,22.5-2.2,4.7-1.1,9.9-.2,14.9-.3,5.2,0,10.4.3,15.6-.1,4.8-.4,8.4,1.1,11.3,4.9,7.2,9.6,16.5,17.2,24.6,25.9,1.3,1.4,3.2,2.3,3.3,4.9-5.9,3-12.5,1.9-18.7,3.4-5.9,1.4-11.9,2.1-17.8,3.2-1.3.2-2.5.7-3.7,1.2-1.3.6-2.1,1.6-1.8,3.1.4,1.6,1.8,1.8,3.1,1.6,3.8-.6,7.6-1.3,11.4-2.1,9.5-2,19-4.1,28.7-4.4,3.8-.1,6.7,1,9.1,4,6.3,7.7,12.7,15.3,19,23,.4.5.5,1.1.8,1.8-1.4,1.9-3.1,1.1-4.7.7-4.5-1.2-9-.6-13.6-.6-1.4,0-2.6.7-2.8,2.2-.2,1.9,1.3,2.8,2.9,2.7,6.3-.4,12.5,1.5,18.7,1.4,4-.1,6.6,1.6,8.6,4.7,8.7,12.7,17.4,25.3,24.2,39.1,1.7,3.5,3.9,6.7,5.9,10-1.1-.1-2.2-.6-3.2-.3-6.5,2.1-12.7,2.5-19.7,1.6-9.9-1.3-19.8-2.2-29.5-4.2-18.9-4-36.3-11.6-51.9-23.1-13.6-10-27.2-20.2-39.9-31.4-27.1-23.8-50-51.1-69.1-81.7-5.3-8.5-9-17.8-13.7-26.6-4.2-7.7-8.7-15-15.5-20.7-1.3-1.1-2.5-2.5-4.3-2.9-3.4-2.4-7.3-4.1-10.7-6.5h0c-.8-.6-2.2-.3-2.6-1.5,0,0,0,0,0,0-.2-.7-.6-1.1-1.3-1.1Z"/>
        <path class="cls-22" d="M770.3,502.7c.7-.2,1.1-.6,1.3-1.3.7-.2,1.1-.6,1.3-1.3,2.8-.9,4.5-3.2,6.5-5.2,0,0,0,0,0,0,.6-1.1,1.9-.8,2.6-1.5h0c.4-.6,1-1.1,1.9-1.2.4.1.6,0,.7-.4.5-.4,1-.7,1.5-1,2.5-.6,4.5-2.2,6.6-3.6,1-.2,1.8-.7,2.4-1.6.7,0,1.3-.3,1.5-1,4.3-2.6,8.6-5.3,12.9-7.9,1.1,0,2-.3,2.6-1.3,1.1,0,2-.3,2.6-1.3,1.1,0,2-.3,2.6-1.3,13-4.3,26.4-6.8,40-8.5,23-2.8,45.7-1.3,67.2,7.3,21.5,8.7,41,21.3,56.2,38.9,16.7,19.4,25.3,42.2,20.5,68.6-.4,2.1-.6,4.3-.1,6.4-10-8.9-21-16.5-32.7-22.9-7.7-4.3-13.3-10.1-17.9-17.2-7.4-11.4-15.8-22.1-26-31.3-.5-.4-.9-1-1.4-1.4-1.9-1.5-3.9-4.8-6.3-1.9-2.2,2.7,1.1,4.8,3,6.2,11.4,8.1,17.7,20.4,26,31,.2.3.2.8.2,1.3h0c-2,.2-3.8-.6-5.6-1.5-11.6-6-23.7-10.6-36.2-14.3-3.6-1.1-6.4-2.8-8.6-6.2-5.7-8.7-13.4-15.8-19.8-23.9-1.1-1.4-2.6-3-4.3-1.5-1.8,1.5-1.1,3.7.4,5.1,5.9,5.8,11.1,12.1,16,18.7.5.7,1.2,1.3,1,2.3-2.3,1.3-4.2-.2-6.1-.9-11.4-4.2-23.3-6.4-35.3-7.8-3.7-.4-7-2.2-10.3-3.7-9.2-4.3-18.7-8.1-28.1-12-2.2-.9-5.1-2.4-6.3.3-1.5,3.1,2.1,3.5,4.1,4.5,5.1,2.6,11,3.7,17.1,7.8-5.6,1-10,.9-14.3,1.6-10.4,1.6-20.2,4.4-29.6,9.1-2.5,1.3-5.3,2-7.9,3-1.4.6-2.8,1.1-4.1,1.9-1.2.7-1.8,1.9-1.2,3.3.5,1.2,1.7,1.3,2.8,1.1,1.5-.3,2.9-.8,4.3-1.3,7.2-2.6,14.6-3.5,22.2-4,6.9-.4,13.8-1,20.7-1.2,5.1-.1,9.8,1.4,14.8,1.7.9,0,1.8.9,3.4,1.7-8,3.5-15.5,6.3-22.6,10-6,3.1-11.4,7.1-17,10.7-1.5,1-3.8,2.3-2,4.6,1.7,2.2,3.6.5,5.1-.6,6.6-4.5,13.4-8.8,20.7-12.1,7.1-3.2,14.3-6.2,21.5-9.2,3.1-1.3,6.1-1.5,9.4-.3,9.5,3.5,19.4,6.1,28.4,10.7.4,2.2-1.2,2.8-2.4,3.6-10,6.4-20.2,12.5-31.4,16.9-1.2.5-2.5.6-3.5,1.6-.6.6-1.2,1.3-1,2.2.2.9,1.1,1.4,1.9,1.5,2,.3,3.8-.1,5.7-.9,9.5-3.8,18.4-8.6,26.9-14.3,10.3-6.9,10.8-6.7,21.3-.3,7.9,4.9,15.7,10,23.4,15.3.8.6,2.1.8,2.1,2.5-8.3,2-16.9,2.1-25.4,3-2.6.3-5.2.3-7.6,1.2-1.4.5-2.4,1.2-2,2.8.3,1.4,1.4,2.3,2.8,2.2,1.5-.1,2.9-.7,4.4-.9,11.6-1.3,23.1-2.6,34.7-3.8,2.3-.3,4.4.6,6,2.1,8.5,7.4,17.6,13.9,25.9,21.6,5.8,5.4,12.1,10.3,18.2,15.4-1.1,1.1-2.8,0-4,1h.1c-2.2,2.3-5.1,3.8-7.9,5.2h.1c-1.9,1.8-4.4,2.7-6.7,3.8h.2c-4.1,2.2-8.3,4.4-13,5.3,0,0,0,0,0,0-7.4,1.3-14.5,3.6-22.1,4.5-17.1,2-33.9,0-50.6-3.7-1.7-.4-3.4-.6-5-1,0,0,0,.1,0,.1-1.2-.9-3.1.2-4.1-1.4h.1c-11.2-3-21.5-8.2-31.3-14.4h.1c-1.6-.4-3-1.2-4.1-2.5h.1c-4.2-2.1-8.4-4.4-11.8-7.9h.1c-7.1-4.5-14.3-9-21.1-14.1h0c-.8-.6-2.1-.3-2.6-1.5h.2c-4.1-2.3-8.1-4.8-11.9-7.8h.1c-2.3-1.1-4.8-1.9-6.7-3.9h.1c-6.4-3.3-12.9-6.5-19.7-9,0,0,0,0,0,0-2.8-1.7-5.9-2.4-9.1-2.7-1.1-1-2.5-1.3-4-1.2,0,0,0,0,0,0-1.1-1.1-2.9,0-4-1.3h0c-1.1-1.1-2.9,0-4-1.3h0c-2.4-1.6-5.5.6-7.9-1.4h.1c-1.9-.9-4.1-.2-6.1-.5-2.1-.2-3.1-1.1-1.9-3.2h0c.8-.7.5-2,1.6-2.5h-.1c.3-.5.8-.9,1.3-1.4h0c.8-.7.4-2.1,1.7-2.4l-.2.2c.1-.9.6-1.3,1.4-1.5l-.2.2c0-.8.6-1.2,1.2-1.6h0c.3-.5.8-.9,1.3-1.3h0c.4-.4.9-.9,1.3-1.3h0c.8-.6.5-2.1,1.7-2.4l-.2.2c.1-.8.7-1.2,1.3-1.6h0c.3-.5.8-.9,1.2-1.4h0c.4-.4.9-.8,1.3-1.3h0c.8-.6.5-2.1,1.7-2.5l-.2.2c.2-.8.7-1.2,1.4-1.5h0c.2-1.3,1.4-1.9,2.3-2.8h0c.5-.4.9-.8,1.2-1.3h0c.9-.6.6-2,1.6-2.5,0,0,0,0,0,0,.7-.1,1.1-.5,1.3-1.3.7-.2,1.1-.6,1.3-1.3,2.1-2.2,4.5-4.2,6.1-6.8,0,0,0,0,0,0,.9-.5.6-1.9,1.6-2.4,0,0,0,0,0,0,.7-.1,1.1-.6,1.3-1.3.7-.2,1.1-.6,1.3-1.3.7-.2,1.1-.6,1.3-1.3.7-.2,1.1-.6,1.3-1.3.7-.2,1.1-.6,1.3-1.3.7-.2,1.1-.6,1.3-1.3.7-.2,1.1-.7,1.1-1.5,1.7-1.7,3.5-3.4,5.2-5.2.8,0,1.2-.5,1.4-1.2.7-.2,1.1-.6,1.3-1.3Z"/>
        <path class="cls-22" d="M1170.1,428.3c0-.6.2-1.2.9-1.5,0,.7-.3,1.2-.9,1.5Z"/>
        <path class="cls-22" d="M945.8,549.4c.2,0,.5.2.5.3,0,.4-.3.3-.5-.3,0,0,0,0,0,0Z"/>
        <path class="cls-15" d="M1442.2,935.8c-.4,12.2-.8,24.4-1.2,36.6-2.6,1.9-3.1,4.6-2.9,7.5.6,7.6-1.2,15.1-1.3,22.6,0,1.9-.3,3.5-2.5,4-4.6,1.1-9,2.7-13.9,2.1-9.2-1.1-18.4-2.3-27.3-4.7-3.3-.9-6.3,1.2-9.6,1.1-10.4,0-20.7.8-30.9,2.8-4.9,1-9.5,0-14.2-.1-10-.1-19.9.1-29.9-.1-7.1-.2-13.8,1-20.3,3.4-2.8,1-5.7,2.2-8.8,2,0-21.7.1-43.3-.3-65,0-3.9,4-6.7,2-10.3-1.6-3.1-3.7-5.7-2.4-9.6.3-1-1.3-2.6-2-3.9,8.8,2.5,17.9,2.5,26.9,2.8,11.2.4,22.4.6,33.6,1.4,12.5.8,25,.8,37.5,1.6,13.1.9,26.3,1,39.4,2.1,6.9.5,13.8.3,20.8.4,3,0,5.6.8,7.4,3.3Z"/>
        <path class="cls-20" d="M314.2,1098.4c.3-2.1,1.8-2.1,3-2.1,21.8.2,43.6-1.1,65.4,1.8-.2,1.9-1.2,1.9-2,1.9-22.1.3-44.2.1-66.4-1.6Z"/>
        <path class="cls-20" d="M383.1,1041c-22.2,3-43.9,1.4-65.6,1.7-1.2,0-2.7.2-3.1-1-.3-.9-.1-1.3.4-1.3,21.5-.8,43.1-2,64.7-1.4,1,0,2.2-.1,3.6,2Z"/>
        <path class="cls-20" d="M386.3,1082.3c-22.5,1.9-44.8-.3-67.2-1.1,5.9-3,59.6-2.2,67.2,1.1Z"/>
        <path class="cls-20" d="M386.6,1057.6c-9.9,2.3-60.8,3-67.5,1,.3-1.9,1.8-1.5,3-1.5,17.9.6,35.8-2,53.7-1.2,2.6.1,5.2,0,7.8,0,1,0,2.2-.2,3,1.6Z"/>
        <path class="cls-28" d="M306.2,1112.8c1.5-1.4,3.1-.9,4.5-1,20.8-.6,41.5,2.1,62.3,1.4.9,0,1.7,0,2.6.2.9.2,1.7.6,1.6,1.7,0,1.1-1,1.6-1.8,1.5-14-1.7-28.2,0-42.2-1.1-7.4-.6-14.7-.7-22-1-1.6,0-3.5.5-5.1-1.7Z"/>
        <path class="cls-28" d="M306.4,1026.6c.4-1.9,1.8-1.9,3-1.9,22-.6,44.1-1.3,66.1-1.9.9,0,1.8.3,1.7,1.4,0,.5-.7,1.2-1.2,1.3-1.2.3-2.6.4-3.8.4-3,0-6.1.1-9.1,0-16.9-.4-33.7,2.1-50.6,1.3-2,0-4.2.7-6.1-.7Z"/>
        <path class="cls-23" d="M299.6,1127c1.6-1.3,3.8-.6,5.8-.7,11.2-.6,22.3,1.8,33.6,1.3,6.5-.3,13,0,19.4,0,1.5,0,3,.2,4.5.4.8.2,1.6.8,1.6,1.8,0,1-.8,1.5-1.7,1.5-1.9,0-3.9.4-5.8,0-12.2-2.1-24.5-.9-36.8-1.1-6.5-.1-12.8-1.8-19.3-1.5-.6,0-1.2-.3-1.2-1.7Z"/>
        <path class="cls-23" d="M299.3,1011.9c.8-1.8,2-1.5,3-1.6,15-1.5,30.1-1.3,45.2-1.3,3.3,0,6.4-.5,9.6-1.1,1.9-.3,3.9,0,5.8,0,.7,0,1.2.4,1.4,1,.4,1.1-.4,1.6-1.1,2-1.4.8-2.9.6-4.4.6-5.4,0-10.8.3-16.2,0-12.3-.6-24.5,1.6-36.8,1.3-2.1,0-4.3.6-6.5-1Z"/>
        <path class="cls-28" d="M291.8,997.3c20.7-1.9,41.3-4.6,62.1-3.1-6.5,3.2-13.7,1.3-20.5,2.6-6.7,1.3-13.9,0-20.7,1-7,.9-13.9.8-20.9-.5Z"/>
        <path class="cls-28" d="M353.8,1144.8c-20.8,1.5-41.4-.9-62.1-2.4,4.3-2.4,8.7-2.2,20.5-.9,6.9.7,14-.5,20.7.7,6.9,1.3,14.1-.3,20.8,2.6Z"/>
        <path class="cls-28" d="M343.5,1158c-2.2,1.4-4.4.7-6.6.8-16.7.7-33.3-2-50-1.4-.9,0-1.7,0-2.6-.2-.9-.2-1.8-.7-1.7-1.6,0-1.3,1.2-2,2.3-1.7,3.4.8,6.8,1.1,10.3.9,15.2-.6,30.2,2,45.4,1.4,1,0,2.2-.2,2.8,1.8Z"/>
        <path class="cls-9" d="M190.6,1071.2c.5-22.3,4-43.9,14.6-63.9,4.9-9.3,11.5-17.2,20-23.5,12.6-9.4,31.1-8,43.5,3.5,11.5,10.7,18.5,23.9,23.2,38.5,5.1,16.2,7.3,32.9,6.8,49.9-.7,19.8-4.3,39.2-13.2,57.1-6.2,12.5-14.3,23.7-27.9,29.7-8.7,3.8-17.1,3.9-25.7,0-10.3-4.6-17.8-12.3-23.4-21.8-9.7-16.2-15.1-33.8-16.7-52.7-.5-5.6-1-11.2-1.1-16.8Z"/>
        <path class="cls-21" d="M724.5,567.6c-.4.9-.9,1.7-1.3,2.6-.9,0-1.7,0-2.6,0-.4-.5-.8-.9-1.3-1.3h0c-.3-.3-.5-.6-.3-.9.1-.3.2-.4.3-.4,1.7,0,3.5,0,5.2,0Z"/>
        <path class="cls-10" d="M367.7,984.3c-.8.1-1.3-.2-1.5-1,.5,0,1-.2,1.5-.3,0,.4,0,.9,0,1.3Z"/>
        <path class="cls-25" d="M1356.2,970.7c-9.1,0-18.2,0-27.3,0-4.5,0-5-.5-5-4.8-.1-15.6-1.1-12.7,12-12.8,15.4-.2,30.8,0,46.2,0,6.4,0,6.7,0,6.6,6.5-.2,13.3,1.3,11-11,11.2-7.2.1-14.3,0-21.5,0Z"/>
        <path class="cls-12" d="M507.5,896.6c14-12.7,28.6-25.7,46.4-32.1,11-4,22.7-5.3,34.4-6.5,8.6-.9,19.3-.9,23.6,6.6,3,5.3,1.2,12.2-2.7,16.8s-9.6,7.3-15.1,9.8c-8.9,4-18,7.6-26.8,11.7-31.8,14.8-60.8,35.6-85.1,61-6.8,7.1-13.5,14.8-22.7,18.4-6.5,2.5-21.4,2.7-24.5-5.8s13-21.5,18.2-27.3c16.9-18.7,35.7-35.7,54.4-52.6Z"/>
        <path class="cls-12" d="M1588.4,821.2c20.3-.3,41.1-.5,60,6.8,11.2,4.3,21.2,10.9,31.2,17.6,4.8,3.2,9.8,6.6,12.7,11.6,1.2,2,2,4.5,1.6,6.8-.7,3.9-4.9,6.5-9,6.6s-7.8-1.6-11.4-3.3c-23.7-11.6-46.3-28.2-72.6-30.2-15.6-1.2-32.1,2.7-46.3-3.9-1-.5-2-1-2.7-1.9-1.8-2.3-.5-5.9,2-7.5,8.2-5.4,25.3-2.4,34.6-2.5Z"/>
        <path class="cls-12" d="M629.9,1055.4c-5.1,3.2-8.3,8.8-11,14.3-8.3,17.2-13.6,35.8-15.7,54.7-.4,3.4-.5,7.2,1.6,9.9,2.4,3,6.7,3.5,10.5,2.9,7.8-1.2,14.7-5.7,21-10.4,7.9-5.9,15.7-12.4,20.2-21.1,7.7-14.7-3.1-65-26.6-50.2Z"/>
        <path class="cls-22" d="M1393.7,590.7s-33.6-15.1-71,35.9c0,0,61.4,8.1,71-35.9Z"/>
        <path class="cls-22" d="M815.5,716.7s17.8-25.8,52.8,2.1c0,0-32,18.5-52.8-2.1Z"/>
        <path class="cls-22" d="M1182.3,758.4s44.5-12.9,62,13c0,0-26.6,16.8-62-13Z"/>
      </g>
    </g>
  </g>
</svg>