<?xml version="1.0" standalone="no"?><!DOCTYPE svg PUBLIC "-//W3C//DTD SVG 1.1//EN" "http://www.w3.org/Graphics/SVG/1.1/DTD/svg11.dtd"><svg t="1706682360403" class="icon" viewBox="0 0 1024 1024" version="1.1" xmlns="http://www.w3.org/2000/svg" p-id="6802" xmlns:xlink="http://www.w3.org/1999/xlink" width="200" height="200"><path d="M870.035402 160.006511H575.648423l-146.880976 79.794913-275.011191-2.083418c-9.375381 0-17.084028 6.666938-17.084028 15.00061v386.682401c0 8.125331 7.708647 15.00061 17.084028 15.000611h716.070804c9.375381 0 17.084028-6.666938 17.084029-15.000611V175.007121c0.416684-8.333672-7.291963-15.00061-16.875687-15.00061z" fill="#0288D1" p-id="6803"></path><path d="M281.053103 245.843337h461.893794c9.375381 0 17.084028 7.708647 17.084029 17.084028v481.894609c0 9.375381-7.708647 17.084028-17.084029 17.084028H281.053103c-9.375381 0-17.084028-7.708647-17.084029-17.084028V262.927365c0-9.375381 7.708647-17.084028 17.084029-17.084028z" fill="#EFEBE9" p-id="6804"></path><path d="M153.964598 305.845778l307.095829 0.625026 149.797762 145.839267 259.177213-2.29176c9.375381 0 17.084028 7.708647 17.084028 17.084029v347.097457c0 9.375381-7.708647 17.084028-17.084028 17.084028H153.964598c-9.375381 0-17.084028-7.708647-17.084028-17.084028V322.929807c-0.208342-9.375381 7.500305-17.084028 17.084028-17.084029z" fill="#039BE5" p-id="6805"></path><path d="M153.964598 324.179858h294.386979l146.880976 146.672634 275.011191-2.500101c9.375381 0 17.084028 7.708647 17.084028 17.084028v265.427467c0 9.375381-7.708647 17.084028-17.084028 17.084029H153.964598c-9.375381 0-17.084028-7.708647-17.084028-17.084029V341.263886c-0.208342-9.375381 7.708647-17.084028 17.084028-17.084028z" fill="#29B6F6" p-id="6806"></path></svg>