<svg t="1723954177535" class="icon" viewBox="0 0 1024 1024" version="1.1" xmlns="http://www.w3.org/2000/svg" p-id="2453" width="200" height="200"><path d="M42.666667 874.666667c-23.466667 0-42.666667-19.2-42.666667-42.666667V192c0-23.466667 19.2-42.666667 42.666667-42.666667h938.666666c23.466667 0 42.666667 19.2 42.666667 42.666667v640c0 23.466667-19.2 42.666667-42.666667 42.666667H42.666667z m42.666666-85.333334h853.333334V234.666667H85.333333v554.666666z" fill="#2F3CF4" p-id="2454"></path><path d="M733.866667 375.466667c-17.066667-17.066667-42.666667-17.066667-59.733334 0s-17.066667 42.666667 0 59.733333l76.8 76.8-76.8 76.8c-17.066667 17.066667-17.066667 42.666667 0 59.733333 8.533333 8.533333 19.2 12.8 29.866667 12.8s21.333333-4.266667 29.866667-12.8l106.666666-106.666666c17.066667-17.066667 17.066667-42.666667 0-59.733334l-106.666666-106.666666zM349.866667 375.466667c-17.066667-17.066667-42.666667-17.066667-59.733334 0l-106.666666 106.666666c-17.066667 17.066667-17.066667 42.666667 0 59.733334l106.666666 106.666666c8.533333 8.533333 19.2 12.8 29.866667 12.8s21.333333-4.266667 29.866667-12.8c17.066667-17.066667 17.066667-42.666667 0-59.733333L273.066667 512l76.8-76.8c17.066667-17.066667 17.066667-42.666667 0-59.733333M590.933333 300.8c-21.333333-8.533333-46.933333 2.133333-55.466666 25.6l-128 341.333333c-8.533333 21.333333 2.133333 46.933333 25.6 55.466667 4.266667 2.133333 10.666667 2.133333 14.933333 2.133333 17.066667 0 34.133333-10.666667 40.533333-27.733333l128-341.333333c8.533333-21.333333-4.266667-46.933333-25.6-55.466667" fill="#2F3CF4" p-id="2455"></path></svg>