<?xml version="1.0" standalone="no"?><!DOCTYPE svg PUBLIC "-//W3C//DTD SVG 1.1//EN" "http://www.w3.org/Graphics/SVG/1.1/DTD/svg11.dtd"><svg t="1705219270213" class="icon" viewBox="0 0 1088 1024" version="1.1" xmlns="http://www.w3.org/2000/svg" p-id="9647" xmlns:xlink="http://www.w3.org/1999/xlink" width="212.5" height="200"><path d="M82.75232 641.28H992.96032v289.6H82.75232v-289.6z" fill="#B1D8FF" p-id="9648"></path><path d="M173.76032 0a49.504 49.504 0 0 0-48.384 39.328L1.02432 639.328a50.112 50.112 0 0 0-1.056 10.24v259.36A115.2 115.2 0 0 0 115.16832 1024h855.68a115.2 115.2 0 0 0 115.2-115.04V649.6a49.28 49.28 0 0 0-1.056-10.176l-122.88-599.936a49.312 49.312 0 0 0-48.32-39.456H173.76032zM98.72032 908.928V698.88h888.608v210.048a16.32 16.32 0 0 1-16.48 16.416H115.16832a16.576 16.576 0 0 1-16.48-16.416z m715.84-50.944c27.264 0 49.376-22.368 49.376-50.048 0-27.616-22.112-49.952-49.376-49.952s-49.376 22.368-49.376 49.952c0 27.616 22.112 49.952 49.376 49.952v0.064z" fill="#65B2FF" p-id="9649"></path></svg>