<svg xmlns="http://www.w3.org/2000/svg" width="1em" height="1em" viewBox="0 0 24 24"><g fill="none" fill-rule="evenodd"><path d="m12.594 23.258l-.012.002l-.071.035l-.02.004l-.014-.004l-.071-.036q-.016-.004-.024.006l-.004.01l-.017.428l.005.02l.01.013l.104.074l.015.004l.012-.004l.104-.074l.012-.016l.004-.017l-.017-.427q-.004-.016-.016-.018m.264-.113l-.014.002l-.184.093l-.01.01l-.003.011l.018.43l.005.012l.008.008l.201.092q.019.005.029-.008l.004-.014l-.034-.614q-.005-.019-.02-.022m-.715.002a.02.02 0 0 0-.027.006l-.006.014l-.034.614q.001.018.017.024l.015-.002l.201-.093l.01-.008l.003-.011l.018-.43l-.003-.012l-.01-.01z"/><path fill="currentColor" d="M10 2a4 4 0 0 1 3.46 1.99l.098.182l.638-.368a4 4 0 0 1 5.475 5.446l-.113.186l.638.368a4 4 0 0 1-1.979 7.464L18 17.264V18a4 4 0 0 1-7.459 2.01l-.1-.182l-.637.368a4 4 0 0 1-5.475-5.446l.113-.186l-.638-.368a4 4 0 0 1 1.979-7.464L6 6.736V6a4 4 0 0 1 4-4m4.702 10.788l-.068 4.059a1 1 0 0 1-.391.777l-.109.072l-1.956 1.13a2.002 2.002 0 0 0 3.817-.677L16 18v-4.434l-1.298-.779Zm-2.033 1.946l-3.55 1.97a1 1 0 0 1-.985-.008l-1.956-1.13a2.001 2.001 0 0 0 2.626 2.898l3.84-2.217zm2.687-5.415l-1.323.735l3.482 2.089A1 1 0 0 1 18 13v2.259a2.002 2.002 0 0 0 1.196-3.723zM6 8.74a2.001 2.001 0 0 0-1.328 3.64l.132.083l3.84 2.217l1.323-.735l-3.482-2.088a1 1 0 0 1-.477-.728L6 11zM10 4a2 2 0 0 0-2 2v4.434l1.298.779l.068-4.06a1 1 0 0 1 .5-.85l1.956-1.129A2 2 0 0 0 10 4m7.928 2.268a2 2 0 0 0-2.594-.805l-.138.073l-3.84 2.217l-.025 1.513l3.55-1.97a1 1 0 0 1 .868-.05l.117.058l1.957 1.13c.442-.62.51-1.465.105-2.166"/></g></svg>