<?xml version="1.0" standalone="no"?><!DOCTYPE svg PUBLIC "-//W3C//DTD SVG 1.1//EN" "http://www.w3.org/Graphics/SVG/1.1/DTD/svg11.dtd"><svg t="1679130416827" class="icon" viewBox="0 0 1024 1024" version="1.1" xmlns="http://www.w3.org/2000/svg" p-id="23910" xmlns:xlink="http://www.w3.org/1999/xlink" width="200" height="200"><path d="M974.17307 224.563254v569.048734H47.998302v-569.048734h926.174768z m-840.593675 483.595517h335.355125c0-92.61428-75.095251-167.677562-167.677563-167.677562-92.61428 0-167.677562 75.063282-167.677562 167.677562z m280.112641-284.812088c0-62.115825-50.351222-112.435079-112.435079-112.435079-62.115825 0-112.467048 50.319253-112.467047 112.435079s50.351222 112.435079 112.467047 112.435078c62.083856 0 112.435079-50.319253 112.435079-112.435078z" fill="#5FCEFF" p-id="23911"></path><path d="M468.93452 708.158771h-335.355125c0-92.61428 75.063282-167.677562 167.677562-167.677562 92.582311 0 167.677562 75.063282 167.677563 167.677562zM301.256957 310.911604c62.083856 0 112.435079 50.319253 112.435079 112.435079s-50.351222 112.435079-112.435079 112.435078c-62.115825 0-112.467048-50.319253-112.467047-112.435078s50.351222-112.435079 112.467047-112.435079z" fill="#FFB578" p-id="23912"></path><path d="M974.17307 815.993506H47.998302a22.378321 22.378321 0 0 1-22.378321-22.378321v-569.048734a22.378321 22.378321 0 0 1 22.378321-22.378321h926.174768a22.378321 22.378321 0 0 1 22.378321 22.378321v569.048734a22.378321 22.378321 0 0 1-22.378321 22.378321z m-903.796447-44.756642h881.418126v-524.292092H70.376623v524.292092z" fill="#4F46A3" p-id="23913"></path><path d="M301.256957 558.160082c-74.35357 0-134.845369-60.475814-134.845368-134.813399s60.491799-134.8134 134.845368-134.8134c74.334389 0 134.8134 60.475814 134.8134 134.8134s-60.475814 134.8134-134.8134 134.813399z m0-224.86696c-49.676676 0-90.088727 40.399263-90.088726 90.056758s40.415248 90.056758 90.088726 90.056757c49.657494 0 90.056758-40.399263 90.056758-90.056757s-40.399263-90.056758-90.056758-90.056758z" fill="#4F46A3" p-id="23914"></path><path d="M468.93452 730.537092a22.378321 22.378321 0 0 1-22.378321-22.378321c0-80.120783-65.181655-145.299241-145.299242-145.299241s-145.299241 65.181655-145.299241 145.299241a22.378321 22.378321 0 1 1-44.756642 0c0-104.797677 85.258206-190.055883 190.055883-190.055883s190.055883 85.258206 190.055884 190.055883c0 12.362424-10.015897 22.378321-22.378321 22.378321zM889.359233 397.231182h-319.6903a22.378321 22.378321 0 1 1 0-44.756642h319.6903a22.378321 22.378321 0 1 1 0 44.756642zM889.359233 534.698011h-319.6903a22.378321 22.378321 0 1 1 0-44.756642h319.6903a22.378321 22.378321 0 1 1 0 44.756642zM889.359233 672.16484h-319.6903a22.378321 22.378321 0 1 1 0-44.756642h319.6903a22.378321 22.378321 0 1 1 0 44.756642z" fill="#4F46A3" p-id="23915"></path></svg>