<svg xmlns="http://www.w3.org/2000/svg" width="1em" height="1em" viewBox="0 0 20 20"><g fill="none"><path fill="url(#fluentColorShieldCheckmark200)" d="M9.723 2.084a.5.5 0 0 1 .554 0a15.05 15.05 0 0 0 6.294 2.421A.5.5 0 0 1 17 5v4.5c0 3.891-2.307 6.73-6.82 8.467a.5.5 0 0 1-.36 0C5.308 16.23 3 13.39 3 9.5V5a.5.5 0 0 1 .43-.495a15.05 15.05 0 0 0 6.293-2.421"/><path fill="url(#fluentColorShieldCheckmark201)" fill-opacity="0.5" d="M9.723 2.084a.5.5 0 0 1 .554 0a15.05 15.05 0 0 0 6.294 2.421A.5.5 0 0 1 17 5v4.5c0 3.891-2.307 6.73-6.82 8.467a.5.5 0 0 1-.36 0C5.308 16.23 3 13.39 3 9.5V5a.5.5 0 0 1 .43-.495a15.05 15.05 0 0 0 6.293-2.421"/><path fill="url(#fluentColorShieldCheckmark202)" d="M19 14.5a4.5 4.5 0 1 0-9 0a4.5 4.5 0 0 0 9 0"/><path fill="url(#fluentColorShieldCheckmark203)" fill-rule="evenodd" d="M16.854 12.646a.5.5 0 0 1 0 .708l-3 3a.5.5 0 0 1-.708 0l-1-1a.5.5 0 0 1 .708-.708l.646.647l2.646-2.647a.5.5 0 0 1 .708 0" clip-rule="evenodd"/><defs><radialGradient id="fluentColorShieldCheckmark200" cx="0" cy="0" r="1" gradientTransform="matrix(21.50002 31 -27.12496 18.81249 -2.5 -7)" gradientUnits="userSpaceOnUse"><stop offset=".338" stop-color="#0fafff"/><stop offset=".529" stop-color="#367af2"/><stop offset=".682" stop-color="#5750e2"/><stop offset=".861" stop-color="#cc23d1"/></radialGradient><radialGradient id="fluentColorShieldCheckmark201" cx="0" cy="0" r="1" gradientTransform="rotate(90 -.5 15)scale(6.5)" gradientUnits="userSpaceOnUse"><stop offset=".5" stop-color="#1e1868"/><stop offset="1" stop-color="#1e1868" stop-opacity="0"/></radialGradient><linearGradient id="fluentColorShieldCheckmark202" x1="10.321" x2="16.532" y1="11.688" y2="18.141" gradientUnits="userSpaceOnUse"><stop stop-color="#52d17c"/><stop offset="1" stop-color="#22918b"/></linearGradient><linearGradient id="fluentColorShieldCheckmark203" x1="12.938" x2="13.946" y1="12.908" y2="17.36" gradientUnits="userSpaceOnUse"><stop stop-color="#fff"/><stop offset="1" stop-color="#e3ffd9"/></linearGradient></defs></g></svg>