<?xml version="1.0" standalone="no"?><!DOCTYPE svg PUBLIC "-//W3C//DTD SVG 1.1//EN" "http://www.w3.org/Graphics/SVG/1.1/DTD/svg11.dtd"><svg t="1706264184481" class="icon" viewBox="0 0 1024 1024" version="1.1" xmlns="http://www.w3.org/2000/svg" p-id="5266" xmlns:xlink="http://www.w3.org/1999/xlink" width="200" height="200"><path d="M854.528 874.24H190.805333A84.138667 84.138667 0 0 1 106.666667 790.101333V212.565333A84.138667 84.138667 0 0 1 190.805333 128.426667h663.744A84.138667 84.138667 0 0 1 938.666667 212.565333v577.557334a84.138667 84.138667 0 0 1-84.138667 84.117333z" fill="#E1E1E1" p-id="5267"></path><path d="M831.829333 128.853333H561.493333a1.856 1.856 0 0 0-1.728 1.194667 1222.4 1222.4 0 0 0-51.178666 178.218667 1188.714667 1188.714667 0 0 0-21.888 180.48 1.856 1.856 0 0 0 1.856 1.92h81.472c8.533333 0 16.853333 3.626667 22.613333 10.026666 5.76 6.4 8.533333 14.933333 7.68 23.466667a948.906667 948.906667 0 0 0 0.426667 186.965333 1.856 1.856 0 0 0 2.176 1.664c49.216-9.386667 112.32-31.232 171.264-80.704 9.173333-7.466667 22.613333-6.186667 30.08 2.773334a21.333333 21.333333 0 0 1-2.56 30.08c-66.944 55.957333-138.688 80.149333-193.706667 90.346666a1.792 1.792 0 0 0-1.429333 2.048 944.981333 944.981333 0 0 0 25.173333 115.946667c0.213333 0.832 0.938667 1.386667 1.770667 1.386667h196.736A87.104 87.104 0 0 0 917.333333 787.562667V214.357333a85.482667 85.482667 0 0 0-85.504-85.504zM728.533333 382.933333c0 11.733333-9.6 21.333333-21.333333 21.333334s-21.333333-9.6-21.333333-21.333334V313.6c0-11.733333 9.6-21.333333 21.333333-21.333333s21.333333 9.6 21.333333 21.333333v69.333333z" fill="#E1E1E1" p-id="5268"></path><path d="M685.866667 382.933333V313.6c0-11.733333 9.6-21.333333 21.333333-21.333333s21.333333 9.6 21.333333 21.333333v69.333333c0 11.733333-9.6 21.333333-21.333333 21.333334s-21.333333-9.6-21.333333-21.333334z" fill="#00B7F9" p-id="5269"></path><path d="M801.706667 664.96c-67.626667 56.533333-140.16 80.64-195.413334 90.666667 5.973333 40.106667 14.72 80 25.813334 119.04H192.064A85.397333 85.397333 0 0 1 106.666667 789.269333V214.464A85.610667 85.610667 0 0 1 192.277333 128.853333H560.213333a1221.717333 1221.717333 0 0 0-51.626666 179.413334A1189.546667 1189.546667 0 0 0 486.613333 490.666667h83.413334c8.533333 0 16.853333 3.626667 22.613333 10.026666 5.76 6.4 8.533333 14.933333 7.68 23.466667-5.973333 62.72-5.973333 126.293333 0.64 189.013333 49.493333-9.173333 113.493333-30.933333 173.226667-81.066666 9.173333-7.466667 22.613333-6.186667 30.08 2.773333a21.333333 21.333333 0 0 1-2.56 30.08z" fill="#00B7F9" p-id="5270"></path><path d="M632.106667 874.666667a946.645333 946.645333 0 0 1-30.72-157.013334c-0.213333-1.493333-0.213333-2.986667-0.426667-4.48-6.613333-62.72-6.613333-126.293333-0.64-189.013333 0.853333-8.533333-1.92-17.066667-7.68-23.466667-5.76-6.4-14.08-10.026667-22.613333-10.026666h-83.413334c2.56-61.226667 10.026667-122.453333 21.973334-182.4 12.586667-60.8 29.866667-121.173333 51.626666-179.413334 1.706667-4.48 3.413333-8.746667 5.12-13.226666l-39.68-15.573334c-3.626667 9.6-7.253333 19.2-10.666666 28.8-20.266667 55.68-36.48 113.066667-48.213334 171.093334-13.44 66.346667-21.12 134.186667-23.253333 202.026666-0.213333 8.32 2.773333 16.213333 8.746667 22.186667 5.546667 5.76 13.653333 9.173333 21.973333 9.173333h82.346667c-5.12 61.653333-4.48 123.946667 1.92 185.386667 0.213333 1.066667 0.213333 2.346667 0.426666 3.413333 1.493333 13.013333 2.986667 26.026667 5.12 38.826667a977.685333 977.685333 0 0 0 42.026667 173.653333l40.533333-13.866666c-5.333333-15.146667-10.026667-30.72-14.506666-46.08z" fill="#00A0D1" p-id="5271"></path><path d="M801.706667 664.96c-67.626667 56.533333-140.16 80.64-195.413334 90.666667-15.573333 2.773333-29.866667 4.48-42.24 5.333333-11.946667 1.066667-22.186667 1.28-30.08 1.28-136.746667 0-232.746667-68.053333-267.733333-97.28-9.173333-7.68-10.24-21.12-2.773333-30.08 7.68-8.96 21.12-10.24 30.08-2.773333 31.36 26.453333 117.546667 87.466667 240.426666 87.466666 6.613333 0 14.933333-0.213333 24.533334-0.853333 12.16-0.853333 26.453333-2.56 42.453333-5.546667 49.493333-9.173333 113.493333-30.933333 173.226667-81.066666 9.173333-7.466667 22.613333-6.186667 30.08 2.773333a21.333333 21.333333 0 0 1-2.56 30.08z" fill="#37474F" p-id="5272"></path><path d="M337.621333 404.266667a21.333333 21.333333 0 0 1-21.333333-21.333334v-69.290666a21.333333 21.333333 0 1 1 42.666667 0v69.290666a21.333333 21.333333 0 0 1-21.333334 21.333334z" fill="#37474F" p-id="5273"></path><path d="M728.533333 313.6v69.333333c0 11.733333-9.6 21.333333-21.333333 21.333334s-21.333333-9.6-21.333333-21.333334V313.6c0-11.733333 9.6-21.333333 21.333333-21.333333s21.333333 9.6 21.333333 21.333333z" fill="#37474F" p-id="5274"></path></svg>