<svg xmlns="http://www.w3.org/2000/svg" width="1em" height="1em" viewBox="0 0 16 16"><g fill="none"><path fill="url(#fluentColorApps160)" d="M2 4.5A1.5 1.5 0 0 1 3.5 3h3A1.5 1.5 0 0 1 8 4.5V8a1 1 0 0 1-1 1H3a1 1 0 0 1-1-1z"/><path fill="url(#fluentColorApps161)" d="M11.5 8A1.5 1.5 0 0 1 13 9.5v3a1.5 1.5 0 0 1-1.5 1.5H8a1 1 0 0 1-1-1V9a1 1 0 0 1 1-1z"/><path fill="url(#fluentColorApps162)" d="M8 13a1 1 0 0 1-1 1H3.5A1.5 1.5 0 0 1 2 12.5V9a1 1 0 0 1 1-1h4a1 1 0 0 1 1 1z"/><path fill="url(#fluentColorApps163)" d="M9.69 2.442a1.5 1.5 0 0 1 2.122 0l1.752 1.752a1.5 1.5 0 0 1 0 2.121l-1.75 1.75a1.5 1.5 0 0 1-2.12 0L7.942 6.311a1.5 1.5 0 0 1 0-2.121z"/><defs><linearGradient id="fluentColorApps160" x1="2" x2="8" y1="3" y2="9" gradientUnits="userSpaceOnUse"><stop stop-color="#b9c0c7"/><stop offset="1" stop-color="#889096"/></linearGradient><linearGradient id="fluentColorApps161" x1="13" x2="7.429" y1="13.571" y2="8" gradientUnits="userSpaceOnUse"><stop stop-color="#63686e"/><stop offset="1" stop-color="#889096"/></linearGradient><linearGradient id="fluentColorApps162" x1="2" x2="8" y1="8" y2="11.857" gradientUnits="userSpaceOnUse"><stop stop-color="#55595e"/><stop offset="1" stop-color="#383b3d"/></linearGradient><linearGradient id="fluentColorApps163" x1="12.898" x2="9.178" y1="7.06" y2="2.471" gradientUnits="userSpaceOnUse"><stop stop-color="#2764e7"/><stop offset="1" stop-color="#36dff1"/></linearGradient></defs></g></svg>